<svg width="80" height="64" viewBox="0 0 80 64" fill="none" xmlns="http://www.w3.org/2000/svg">
<path fill-rule="evenodd" clip-rule="evenodd" d="M65.9888 12.1353H66.0282L65.9944 12.1803L65.9888 12.1353ZM64.2497 14.0713V14.032L64.2947 14.0657L64.2497 14.0713ZM64.9307 15.3208H64.9701L64.9363 15.3658L64.9307 15.3208ZM69.8891 19.9021H69.8497L69.8835 19.857L69.8891 19.9021ZM69.9285 19.9021V19.8627L69.9735 19.8964L69.9285 19.9021ZM69.8891 19.9021H69.9285V20.3185V20.3579C69.8834 20.4705 69.8778 20.6112 69.7934 20.78L69.5795 21.1234C69.5345 21.2247 69.6414 21.1346 69.512 21.2247C69.4838 21.2753 69.467 21.326 69.4388 21.3766C69.3938 21.4498 69.3713 21.4554 69.3263 21.5286C69.2812 21.5624 69.3094 21.5286 69.2756 21.5792C69.2193 21.6637 69.225 21.6918 69.1405 21.7256L68.7916 21.7199C68.8085 21.6862 68.8085 21.6411 68.8141 21.6355C68.8141 21.6299 68.8197 21.6186 68.8197 21.6186L69.2925 20.5943C69.5007 20.1047 69.315 20.403 69.5683 20.2679L69.8891 19.9021ZM59.933 20.1666H59.9724L59.9386 20.2116L59.933 20.1666ZM61.5257 22.0633C61.4132 22.142 61.4638 22.142 61.4638 22.142L61.4413 22.1702C61.4357 22.1758 61.4244 22.1814 61.4244 22.1814C61.4188 22.1871 61.4075 22.1927 61.4019 22.1927C61.3963 22.1983 61.385 22.204 61.3794 22.2096L61.3062 22.2828L61.098 22.4122C61.0023 22.4685 61.0867 22.4235 61.0136 22.4797C60.9798 22.5022 60.991 22.5022 60.946 22.5304L60.7772 22.6598C60.704 22.7105 60.7322 22.7105 60.7209 22.7274C60.7209 22.7274 60.7153 22.7386 60.7096 22.7443C60.6477 22.823 60.6027 22.8737 60.5689 23.0313L60.5858 23.3071C60.6477 23.3521 60.7547 23.5547 60.7209 23.7123L60.659 23.8249C60.614 23.9149 60.6928 23.8699 60.5858 23.9487C60.2932 24.5059 60.2369 24.4721 59.6853 25.018C59.4208 25.2825 59.5953 25.2882 59.4208 25.2994C59.2688 25.3107 59.1507 25.2488 59.0325 25.1643H58.9931L58.7848 25.3332C58.7792 25.3388 58.7736 25.3444 58.7679 25.3501C58.7679 25.3557 58.7567 25.3613 58.7567 25.367L58.7398 25.4007C58.7398 25.4063 58.7342 25.412 58.7342 25.4176L58.5935 25.5696C58.5878 25.5752 58.5766 25.5808 58.571 25.5808C58.5653 25.5864 58.5541 25.5921 58.5484 25.5921L58.3121 25.7215C58.2108 25.744 58.2276 25.7384 58.1545 25.7722H58.1151C58.0475 25.8059 57.9913 25.8172 57.9237 25.8453H57.8843C57.7436 25.9129 57.693 25.8904 57.5973 26.0536C57.586 26.0705 57.5298 26.1943 57.5298 26.1943C57.5241 26.2112 57.5129 26.29 57.5072 26.3744L57.4341 26.4138C57.4735 26.5151 57.4453 26.4419 57.451 26.532C57.4566 26.622 57.4397 26.5714 57.5072 26.6727V26.7121L57.5466 27.0892L56.5167 27.1004C56.4435 27.1117 56.4886 27.1004 56.4435 27.1285C56.3535 27.0892 56.421 27.0892 56.331 27.1285H56.2916C56.1621 27.1792 56.0608 27.1229 55.8413 27.1679C55.7231 27.1905 55.8019 27.1792 55.6894 27.2073L55.2673 27.2805H55.2279L54.4343 27.5056H54.3949C54.3274 27.5394 54.2711 27.5507 54.2035 27.5788H54.1642C54.0628 27.6294 53.9953 27.6294 53.9447 27.6407L53.7308 27.7139C53.7252 27.7139 53.7139 27.7195 53.7083 27.7251L53.5282 27.8039C53.5225 27.8039 53.5113 27.8095 53.5113 27.8095L53.3706 27.8771C53.3312 27.9052 53.3875 27.8771 53.2974 27.9221C53.2974 27.9221 53.2299 27.9503 53.2186 27.9559H53.1792C53.1286 27.9896 53.1173 28.0122 53.0723 28.0403C53.016 28.0741 52.9766 28.0797 52.9147 28.1078H52.8753L52.8022 28.181L52.335 28.5131C52.2225 28.5975 52.1662 28.6031 52.0424 28.7832L51.9692 28.8564C51.8454 28.9464 51.9523 28.862 51.9017 28.9521L51.7835 29.0815L51.4345 29.5711L51.4233 29.5824C51.2375 29.7738 51.2769 29.8244 51.0293 29.9933H50.9899C50.8998 29.9539 50.9674 29.9539 50.8773 29.9933H50.8379L49.5153 29.8413H49.4759L47.0108 29.7963C46.8026 29.8132 46.4762 29.7794 46.3298 29.8413H46.2904H46.251H46.2116L45.8965 29.9145C45.8627 29.9313 45.8402 29.9651 45.7952 29.9933L45.57 30.1452L45.4969 30.2184H45.4687L45.3956 30.2915C45.328 30.3366 45.3111 30.3478 45.2323 30.3928C45.131 30.4491 45.1367 30.466 45.0579 30.5223L44.9341 30.6292C44.9284 30.6349 44.9172 30.6405 44.9172 30.6405L44.8722 30.6686C44.7483 30.753 44.6921 30.86 44.5795 30.9388C44.5063 30.9951 44.4669 30.9894 44.3938 31.0513C44.3206 31.1132 44.3206 31.1358 44.2305 31.192L44.118 31.2652L43.7409 31.4903C43.6396 31.5579 43.5833 31.586 43.4764 31.6423C43.4708 31.6479 43.4539 31.6479 43.4539 31.6592L43.0993 31.873H43.0486C42.7729 32.0588 42.9924 31.9349 42.8404 31.9743C42.6772 32.0137 42.801 31.9856 42.711 32.0306C42.6547 32.0588 42.604 32.0757 42.5534 32.0982H42.514L41.7204 32.4752H41.681C41.6304 32.509 41.6078 32.5372 41.5572 32.5653C41.4446 32.6159 41.6247 32.5315 41.5009 32.5822C41.4615 32.5991 41.4559 32.6047 41.4165 32.6328H41.3771L41.2645 32.706H41.2251H41.1914L41.0788 32.7792L40.5667 33.0268C40.3922 33.1112 40.1783 33.3251 40.0658 33.4714C39.9532 33.6234 40.0939 33.4264 40.0207 33.6121C40.1389 33.6009 40.0939 33.6121 40.1727 33.5727H40.2121H40.2515H40.2909C40.3134 33.5615 40.3584 33.5446 40.3697 33.539C40.4428 33.5052 40.4034 33.5221 40.4428 33.4939C40.5329 33.4545 40.5667 33.4883 40.7074 33.4208H40.7467C40.8143 33.387 40.8706 33.3757 40.9381 33.3476H40.9775L42.2269 32.9705H42.2663L42.7672 32.8073C42.7898 32.8017 42.8573 32.7904 42.9473 32.7792C42.8685 32.9649 43.0149 32.7679 42.9023 32.9199C42.8573 32.9761 42.8235 32.9761 42.7841 33.0493L42.6997 33.2407C42.6884 33.2688 42.7053 33.2519 42.6547 33.3195L42.5703 33.4208C42.5703 33.4264 42.5646 33.432 42.559 33.4377L42.4802 33.584C42.4239 33.7022 42.5196 33.5221 42.4633 33.6403L42.1594 34.1693C42.1144 34.2706 42.165 34.1468 42.1256 34.2256C42.1031 34.265 42.1031 34.2762 42.0919 34.2988L41.9455 34.5408C41.9005 34.6027 41.9118 34.5802 41.8836 34.6252C41.8105 34.7546 41.9061 34.5802 41.8667 34.6815C41.8667 34.6871 41.8611 34.6983 41.8611 34.6983C41.8161 34.7997 41.7711 34.749 41.7992 34.9404C41.7992 34.946 41.8048 34.9572 41.8048 34.9629C41.8105 34.9966 41.8386 35.0191 41.8161 35.0867C41.8386 35.1148 41.8386 35.0979 41.8611 35.1599C41.8836 35.2218 41.8724 35.1936 41.878 35.2499C41.8836 35.3343 41.8555 35.2949 41.8949 35.3906C42.0018 35.4356 41.9061 35.4244 42.0243 35.3737C42.3114 35.2443 42.0243 35.3962 42.2832 35.0979L42.4239 34.8616L42.9248 34.1524C43.0937 33.9779 42.9248 34.0849 43.0768 33.9273C43.0937 33.9104 43.1218 33.8879 43.1331 33.871L43.9154 33.0606C43.921 33.0549 43.9323 33.0493 43.9379 33.0437L44.0504 32.9705L44.1968 32.8861C44.2587 32.858 44.3037 32.8467 44.3544 32.8186H44.3938C44.4613 32.7848 44.4388 32.7904 44.5457 32.7792L44.3825 33.0549C44.2868 33.2576 44.3656 33.0943 44.2531 33.2463C44.163 33.3645 44.2812 33.235 44.208 33.3307L43.8478 33.8485C43.8366 33.8823 43.8647 33.8541 43.8028 33.9217L43.7015 34.0342C43.7015 34.0399 43.6959 34.0511 43.6959 34.0511C43.6959 34.0511 43.7128 34.0455 43.679 34.1074C43.6621 34.1412 43.634 34.1637 43.6002 34.2143C43.5158 34.2762 43.4933 34.3325 43.4426 34.4732L43.24 34.9066C43.24 34.9122 43.2344 34.9235 43.2344 34.9235L43.1668 35.0585C43.1331 35.1711 43.2006 35.0023 43.15 35.1261C43.0486 35.1992 43.1274 35.0923 43.0261 35.4019L42.9473 35.7227C42.9248 35.8915 42.9023 35.5876 42.8742 36.0041C42.8685 36.066 42.8629 36.0885 42.8235 36.201C42.756 36.4149 42.8291 36.4318 42.7729 36.5669V36.6063L42.7504 36.6907C42.6941 36.8821 42.6997 37.1409 42.711 37.3604L42.7504 37.7713C42.7504 37.7769 42.756 37.8051 42.7616 37.8107C42.7841 37.8951 42.7898 37.9233 42.7954 37.9795C42.8235 38.3904 42.8404 38.2722 42.8685 38.4917V38.6999C42.8685 38.7056 42.8685 38.7281 42.8742 38.7393C42.8742 38.745 42.8798 38.7562 42.8798 38.7562C42.8798 38.7618 42.8854 38.7731 42.8854 38.7731C42.8854 38.7787 42.8911 38.79 42.8967 38.79L42.9473 39.0151C42.953 39.0545 42.9473 39.0489 42.9699 39.0995C43.0993 39.0432 43.0036 39.1277 43.1612 39.0264L43.392 38.3904C43.437 38.3003 43.3638 38.3622 43.4876 38.1315L43.5608 37.9683C43.5889 37.8557 43.5327 37.9345 43.6227 37.8051C43.6621 37.7038 43.6171 37.7713 43.6509 37.6981C43.6677 37.6587 43.679 37.6531 43.6903 37.6418C43.7184 37.5912 43.7071 37.6193 43.7184 37.5856L43.769 37.4561C43.8141 37.3661 43.8028 37.383 43.8535 37.3098V37.3267L43.966 37.0228C44.0617 36.9552 44.2362 36.5106 44.2587 36.4656C44.2981 36.3868 44.2699 36.4543 44.2925 36.4093L44.4275 36.1223C44.4275 36.1166 44.4388 36.111 44.4444 36.1054C44.4726 36.0547 44.4613 36.0772 44.4726 36.0491L44.4894 35.9928C44.5232 35.9309 44.5232 35.9534 44.5739 35.8577L45.0579 35.0585L45.1536 34.9178C45.1536 34.9122 45.1592 34.9066 45.1592 34.901C45.2267 34.7659 45.3674 34.6758 45.4293 34.597C45.5363 34.4507 45.3505 34.6139 45.525 34.4282C45.5588 34.3944 45.57 34.3888 45.5925 34.3494L45.8965 33.9723C45.9527 33.8766 45.8177 33.9048 46.009 33.8879C45.9921 34.0793 45.9921 33.9442 45.9246 34.0905L45.7952 34.3944C45.7332 34.5408 45.7895 34.4563 45.7445 34.5689C45.6094 34.6646 45.7333 34.5689 45.6601 34.7546C45.6207 34.8559 45.6601 34.7377 45.6151 34.8447L45.6038 34.8784C45.5306 35.0811 45.4856 35.0754 45.4575 35.143C45.4406 35.1824 45.4575 35.1992 45.4518 35.2386L45.2999 35.6157C45.2999 35.6214 45.2943 35.627 45.2943 35.6326L45.193 35.9196C45.1761 35.9647 45.1648 35.9759 45.1479 36.0435C45.131 36.1166 45.1761 36.0266 45.1254 36.1504L45.3505 36.0716C45.4856 35.9984 45.5138 35.8409 45.5306 35.7846L45.6545 35.5876C45.7051 35.7058 45.6713 35.7846 45.5813 35.9309L45.8008 35.9928C45.8571 36.0266 45.9077 36.1954 45.9246 36.3474C46.251 36.1279 46.3242 35.7677 46.5662 35.4019V35.3568L46.7294 35.0023C46.7351 34.9966 46.7351 34.9741 46.7407 34.9629L46.8082 34.8503C46.842 34.7771 46.8139 34.7715 46.9264 34.6027C47.0727 34.3775 46.8589 34.6646 47.039 34.3381L47.1178 34.1637C47.1572 34.0736 47.0896 34.1974 47.1403 34.113C47.1628 34.0736 47.129 34.1299 47.1628 34.0793L47.3485 33.8429C47.3654 33.8147 47.3035 33.8372 47.4104 33.7641L47.4836 33.6909H47.523V33.7303L47.3485 34.0399C47.3373 34.0736 47.3485 34.0455 47.3204 34.0961L47.1121 34.4395C47.1065 34.4451 47.1009 34.4732 47.0953 34.4788L46.9602 34.7434C46.9208 34.8334 46.9546 34.7434 46.9264 34.7997L46.6675 35.3118C46.6619 35.3343 46.6731 35.3962 46.6675 35.4244C46.6394 35.5313 46.6337 35.475 46.6056 35.5707C46.555 35.7114 46.645 35.5313 46.5775 35.7001L46.493 35.7677C46.6675 35.8859 46.7351 35.8296 46.8195 35.672L46.9152 35.5876L46.9883 35.627C46.9152 35.8127 47.0333 35.9872 47.0108 36.1054L46.3861 36.8764C46.3523 36.9271 46.3411 36.9271 46.3017 36.9834L46.2341 37.0621C46.2341 37.0621 46.2285 37.0734 46.2229 37.0734L45.9978 37.4055C45.9527 37.473 45.8965 37.5011 45.8458 37.5856L45.7333 37.715C45.7333 37.715 45.7276 37.7263 45.722 37.7263C45.525 38.0189 45.5194 37.9289 45.3731 38.1315L45.1254 38.3735C45.0579 38.4298 45.0354 38.4579 44.9678 38.5198C44.9341 38.5536 44.9284 38.5592 44.8834 38.5874L44.8102 38.6268C44.8046 38.6324 44.7934 38.638 44.7877 38.6436C44.7371 38.6774 44.7258 38.6999 44.6808 38.7281C44.6245 38.7618 44.5851 38.7675 44.5232 38.7956L44.45 38.8688H44.4106L44.3375 38.9419C44.2193 38.9982 44.2418 38.9532 44.1349 39.0432C44.0786 39.0883 44.0392 39.1389 43.9829 39.1952C43.7634 39.4147 43.8985 39.4485 43.7634 39.5441L43.5721 40C43.4708 40.0732 43.5214 40.0901 43.5158 40.1407L43.2006 40.7823C43.2006 40.788 43.195 40.7992 43.1894 40.7992C43.15 40.8724 43.1893 40.7823 43.15 40.8555L43.0937 41.0243C43.0937 41.03 43.088 41.0412 43.088 41.0412C43.0374 41.1932 43.0543 41.4127 43.0599 41.5703C43.0655 41.7447 43.0768 41.6434 42.9642 41.8066C42.8179 41.9023 42.7954 42.043 42.6997 42.1106C42.6659 42.1556 42.6378 42.1781 42.6209 42.2175L42.5759 42.3301C42.5759 42.3357 42.5646 42.3413 42.559 42.3469C42.5309 42.3976 42.5421 42.3751 42.5309 42.4032L42.2832 42.831C42.0525 42.8253 42.1988 42.8141 42.0468 42.7634C41.5572 42.6058 41.5516 42.6621 41.0056 42.6565C40.9325 42.6565 40.6567 42.679 40.5779 42.7128H40.5385C40.4428 42.7522 40.4428 42.724 40.3584 42.7353L39.6718 42.8647H39.6324C39.4748 42.9379 39.2834 42.921 39.2047 42.921L38.76 42.8647H38.7206C38.6418 42.8141 38.3661 42.724 38.231 42.7972L37.9496 43.0505L37.9383 43.0617L37.9158 43.0842L37.9046 43.0955L37.747 43.2699C37.7357 43.2868 37.7132 43.3262 37.7132 43.3262L37.6625 43.4669V43.5063C37.6119 43.6133 37.6513 43.4726 37.6175 43.6133C37.6006 43.6977 37.6288 43.6921 37.6344 43.7652C37.6513 43.8778 37.6006 43.8046 37.6625 43.9228V43.9622C37.6682 44.0016 37.6794 44.0691 37.6794 44.086L37.7639 44.4462C37.8032 44.5306 37.8258 44.4744 37.8314 44.5982C37.8426 44.8064 38.0284 45.009 38.1578 45.1722L38.1972 45.2285C38.231 45.2848 38.1522 45.2454 38.2648 45.3242L38.4561 45.5493L38.5293 45.6225L38.6024 45.6957L38.6756 45.7688L38.7488 45.842L38.9007 45.994L39.1653 46.2191C39.3791 46.371 39.5536 46.5511 39.6549 46.5624L39.6155 46.6356C39.5255 46.5962 39.593 46.5962 39.5029 46.6356H39.4635C39.3735 46.675 39.4016 46.6524 39.3228 46.6524C39.2722 46.6524 39.2272 46.6637 39.1315 46.6806C39.002 46.6975 38.9176 46.6693 38.8219 46.7087H38.7825C38.6925 46.6693 38.76 46.6693 38.67 46.7087H38.6306L37.4093 46.765C37.3417 46.765 37.353 46.7763 37.2292 46.7875H37.1898C37.0997 46.8269 37.1673 46.8269 37.0772 46.7875H37.0378C36.7958 46.9057 36.6945 46.8044 36.5482 46.8607H36.5088C36.4187 46.8213 36.4863 46.8213 36.3962 46.8607H36.3568C36.2555 46.9057 36.3287 46.8776 36.233 46.8776C36.1598 46.8776 36.188 46.8832 36.0867 46.8944C35.8897 46.9113 35.794 46.9001 35.7096 46.9338H35.6702C35.5182 46.9451 35.5408 46.9564 35.4507 46.9507L34.1562 47.0464C34.0212 47.052 33.9536 47.0577 33.8917 47.0858H33.8523C33.7623 47.0464 33.8298 47.0464 33.7398 47.0858H33.7004C33.6103 47.0464 33.6779 47.0464 33.5878 47.0858H33.5484H33.509H33.4696H33.4302H33.3908C33.3008 47.1252 33.3683 47.1252 33.2783 47.0858H33.2389C33.1319 47.1308 33.07 47.0971 32.9462 47.1027L32.0007 47.1759C31.9275 47.1759 31.8543 47.1927 31.6855 47.1984L31.1565 47.2378H31.1171C31.027 47.2772 31.0946 47.2772 31.0045 47.2378C30.9145 47.2772 30.982 47.2772 30.8919 47.2378H30.8525C30.6049 47.356 30.3404 47.2603 30.2109 47.3109H30.1715C30.0815 47.2715 30.149 47.2715 30.059 47.3109H30.0196L29.0853 47.3672C29.0234 47.3728 29.029 47.3785 28.9221 47.3841H28.8827C28.7814 47.4235 28.1736 47.4235 28.0891 47.4573H28.0497C27.9597 47.4967 28.0272 47.4967 27.9372 47.4573H27.8978C27.7965 47.5023 27.8696 47.4741 27.774 47.4741C27.7008 47.4741 27.7289 47.4798 27.6276 47.491C27.4307 47.5079 27.335 47.4967 27.2506 47.5304H27.2112C27.1211 47.491 27.1887 47.491 27.0986 47.5304H27.0592C26.9748 47.5642 26.9523 47.5473 26.8566 47.5586C26.7215 47.5754 26.5977 47.5698 26.457 47.5698L26.5189 47.3672C26.6033 47.1702 26.4683 46.5174 26.4683 46.5174L26.0461 46.0446C26.0405 46.039 26.0293 46.0333 26.0236 46.0333C26.018 46.0277 26.0067 46.0221 26.0011 46.0165C25.9167 45.9827 25.9448 46.0052 25.8435 45.9827C25.776 45.9658 25.7816 45.9714 25.7479 45.9602C25.7085 45.9546 25.7141 45.9602 25.6634 45.9377H25.624C25.5171 45.8926 25.5621 45.9489 25.4158 45.8814L25.337 45.842C25.3257 45.8364 25.3032 45.8251 25.292 45.8195C25.2864 45.8195 25.2807 45.8082 25.2751 45.8082L25.2526 45.7632C25.2526 45.7576 25.247 45.7463 25.2413 45.7463L25.1682 45.5606C25.0556 45.2229 25.1063 45.0991 25.1063 44.5926C25.1063 44.5194 25.1063 44.4969 25.1063 44.4237L25.0162 43.7427C24.9599 43.5682 24.9543 43.7033 24.9543 43.5514C24.9543 43.2306 24.8755 43.3037 24.8811 43.0955C24.8811 42.9998 24.8868 43.0167 24.8642 42.876L24.8811 41.165C24.8868 40.9343 24.7854 41.1313 24.7967 40.8668C24.8417 40.0901 24.6841 39.8875 24.9262 39.7299L24.9712 39.7017L25.0837 39.6286H25.1231C25.2301 39.561 25.2638 39.4991 25.3595 39.4091L25.8154 38.9532C26.0687 38.7056 25.8098 38.8519 25.9955 38.7168L26.1137 38.5705C26.1531 38.593 26.1925 38.6155 26.2262 38.6662C26.305 38.7956 26.1137 38.6549 26.2994 38.79C26.3275 39.1558 26.2994 38.9419 26.3838 39.1164C26.4345 39.229 26.3838 39.122 26.4007 39.1783L26.547 39.7468C26.5583 39.8087 26.5302 39.7805 26.5752 39.8875L26.7722 40.5066C26.8228 40.726 27.0648 41.0412 27.0761 41.0637C27.0761 41.0694 27.0817 41.075 27.0817 41.0806L27.0986 41.1144C27.1324 41.1707 27.1436 41.165 27.1887 41.2438C27.3744 41.559 27.6051 41.6209 27.6896 41.8348L27.9147 42.2738C27.9428 42.4032 27.8528 42.2288 27.9541 42.4482C28.0891 42.7578 28.061 42.8872 28.0723 42.9154C28.1398 43.0842 28.1511 42.9154 28.1398 43.1405C28.1398 43.1686 28.1342 43.2474 28.1398 43.2531C28.1511 43.2925 28.1454 43.27 28.1623 43.3037C28.2861 43.512 28.1511 43.3262 28.2467 43.6301C28.3312 43.8947 28.2692 43.889 28.2861 44.0129C28.3143 44.1873 28.2524 43.8553 28.303 44.0691C28.3199 44.1479 28.3199 44.0466 28.3143 44.1254C28.3086 44.238 28.258 44.1085 28.3312 44.3168L28.3593 44.4687C28.3537 44.6207 28.4719 45.1103 28.5563 45.2454L28.9559 46.0446C28.9559 46.0502 28.9615 46.0615 28.9615 46.0615L29.1416 46.4386L29.5412 46.7988C29.5468 46.8044 29.5581 46.81 29.5637 46.81C29.5693 46.8157 29.5806 46.8213 29.5862 46.8269C29.6538 46.8719 29.8845 47.0577 30.0027 46.9395L30.014 46.6074C29.9802 46.478 29.9408 46.6356 30.0027 46.4836H30.1153C30.1265 46.6356 30.1321 46.6074 30.2278 46.6749L30.3348 46.7988C30.5993 46.72 30.3742 46.7143 30.5317 46.6018C30.5543 46.5511 30.5374 46.568 30.5486 46.5399C30.6105 46.3654 30.6893 46.4498 30.7006 46.2528L30.7062 46.1966C30.7062 46.1909 30.7118 46.1797 30.7175 46.1741C30.7512 46.0896 30.7175 46.2134 30.7625 46.0727V45.493C30.74 45.4143 30.7118 45.3298 30.6837 45.2679C30.5317 45.161 30.7118 45.2398 30.5374 44.9921L30.3404 44.632C30.1434 44.1311 30.2109 44.4406 30.0027 44.1311L29.5018 43.1743C29.5018 43.1686 29.4962 43.1574 29.4962 43.1574C29.4962 43.1518 29.4905 43.1405 29.4905 43.1405C29.4118 42.9604 29.4286 43.1124 29.4174 42.9717L29.3386 42.6903C29.3386 42.6846 29.333 42.6734 29.333 42.6734L29.1866 42.2344C29.1529 41.9586 29.136 42.2006 29.1078 42.0093C29.0909 41.9023 29.1247 42.0655 29.1135 41.953C29.1022 41.8573 29.0403 41.8517 29.0347 41.6828C29.029 41.5478 29.0572 41.6659 28.9896 41.5534C28.9559 41.4971 28.9615 41.5309 28.9559 41.4802C28.9502 41.4296 28.9671 41.4746 28.9615 41.4014C28.9559 41.3226 28.9277 41.3001 28.8996 41.2326C28.8996 41.2269 28.894 41.2157 28.894 41.2157C28.742 40.788 28.8658 40.2927 28.787 40.0957C28.742 39.9831 28.7701 40.1126 28.742 40.0056C28.7026 39.8481 28.8039 39.9663 28.6745 39.6455L28.6351 39.4879C28.6126 39.426 28.6351 39.471 28.5957 39.3922L28.5 39.2627C28.5 39.2571 28.4944 39.2459 28.4887 39.2459C28.4887 39.2402 28.4775 39.229 28.4775 39.229L28.4156 39.0658L28.1454 38.0527C28.1454 38.0471 28.1398 38.0358 28.1398 38.0358L27.9766 36.5781C27.9653 36.4656 27.9822 36.3418 27.9766 36.2179L27.9541 35.7339V35.6945L27.9203 35.5707C27.8584 35.3793 27.9428 35.3568 27.8809 35.1992L27.8415 35.1599V35.1205C27.8134 34.794 27.7683 34.8559 27.7458 34.749C27.7289 34.6702 27.7796 34.704 27.7121 34.597C27.5882 34.3888 27.7008 34.6252 27.667 34.3719L27.5882 34.1018C27.5882 34.1018 27.5601 34.0173 27.5545 34.0005C27.4588 33.7753 27.5601 33.9104 27.4982 33.7528V33.7134C27.4532 33.6459 27.4757 33.6965 27.4532 33.6459C27.4138 33.5502 27.4701 33.5727 27.38 33.4433C27.3744 33.3983 27.3687 33.3532 27.3631 33.3251C27.3294 33.0606 27.3237 33.2801 27.2843 32.9987C27.2674 32.8974 27.2337 32.9536 27.2055 32.8298L26.6765 31.1639C26.6652 31.1358 26.6765 31.1583 26.6484 31.1076C26.5808 30.9951 26.6033 31.1301 26.6033 30.9163C26.6033 30.7362 26.5752 30.9557 26.5189 30.511C26.4851 30.2296 26.3782 30.2127 26.1643 30.1114C26.0574 30.0383 26.0968 30.1058 25.9448 29.9482C25.776 29.7794 25.8829 29.8751 25.821 29.7287C25.9111 29.7287 26.0124 29.7175 26.0405 29.7118C26.2094 29.6781 26.018 29.6331 26.4739 29.6331C26.5921 29.6331 26.9241 29.6556 27.0311 29.6162H27.0705C27.3012 29.5036 27.4982 29.6105 27.7965 29.5261L28.742 29.4079C28.8321 29.4023 28.7701 29.4023 28.8377 29.3854L29.2936 29.3348C29.4174 29.3179 29.2542 29.3404 29.3892 29.301L30.8188 29.0871H30.8582C30.9482 29.0534 30.982 29.0759 31.0946 29.059C31.2859 29.0308 31.2521 29.0252 31.4266 29.014H31.466C31.5955 28.9521 31.6855 28.9633 31.7812 28.9577L31.8543 28.9408C32.0232 28.8845 32.0964 28.9408 32.2596 28.862H32.299L33.2389 28.6875C33.3402 28.665 33.3233 28.6706 33.3964 28.6369H33.4358C33.5765 28.6932 33.3796 28.665 33.6947 28.6144C33.8636 28.5862 33.9255 28.5299 34.0043 28.5581H34.0437C34.1844 28.4905 34.2182 28.5187 34.3082 28.4849H34.3476H34.387H34.4264L35.1749 28.3442C35.1806 28.3442 35.1918 28.3386 35.1918 28.3386C35.2987 28.3048 35.4732 28.3104 35.597 28.2598H35.6364L36.0079 28.181C36.1092 28.1585 36.0023 28.181 36.0979 28.1641C36.1598 28.1529 36.1992 28.1416 36.278 28.1078H36.3174C36.385 28.0741 36.4412 28.0628 36.5088 28.0347H36.5482C36.7339 27.9446 36.6945 28.0122 36.8296 27.939L36.9028 27.894C36.9084 27.8883 36.9196 27.8827 36.9253 27.8771H36.9647H37.0041C37.1673 27.7983 37.111 27.8715 37.3361 27.7589C37.6344 27.6126 37.6625 27.6407 37.8708 27.5L38.2873 27.2749L38.3998 27.2017L38.5518 27.0498L38.7037 26.8978L38.8051 26.6445C38.8051 26.6389 38.8107 26.6276 38.8163 26.6276L38.9176 26.38C38.9176 26.3744 38.9232 26.3631 38.9232 26.3631L38.957 26.2731C39.0471 26.1211 39.3341 26.1549 39.5986 26.0648C39.7168 26.0254 39.8012 26.048 39.9138 25.9917H39.9532L40.6736 25.7665H40.713C40.758 25.744 40.7693 25.744 40.8199 25.7215C40.8987 25.6878 40.8312 25.7046 40.91 25.6765C40.955 25.6596 41.0225 25.6652 41.1295 25.6146H41.1689C41.2364 25.5808 41.2927 25.5696 41.3602 25.5414H41.3996L42.6153 25.1306C42.6884 25.1081 42.6716 25.1137 42.7222 25.0855H42.7616C43.1218 24.9111 43.0937 25.0293 43.3301 24.9336H43.3694H43.4088H43.4482C43.5889 24.8661 43.6227 24.8942 43.7128 24.8604H43.7522C43.8422 24.821 44.0786 24.821 44.1686 24.7873H44.208C44.3487 24.7197 44.3825 24.7479 44.4726 24.7141H44.512H44.5513H44.5907C44.7708 24.6409 45.6038 24.686 45.7164 24.6466C45.9471 24.5734 45.919 24.6184 46.0766 24.5734C46.1779 24.5452 46.0878 24.5059 46.2173 24.5565H46.2567C46.3467 24.5171 46.3692 24.534 46.4536 24.5396L47.2754 24.4833H47.3147H47.3541H47.3935L48.3672 24.3877C48.4629 24.3877 48.4347 24.3933 48.5698 24.3708C48.8006 24.337 48.8512 24.3708 48.9469 24.3314H48.9863H49.0257H49.0651C49.1777 24.2807 49.0876 24.3145 49.217 24.2976C49.2733 24.292 49.2339 24.3032 49.2846 24.292C49.3634 24.2751 49.324 24.2864 49.3634 24.2582C49.4985 24.3145 49.4028 24.2582 49.5266 24.2413C49.6335 24.2244 49.8361 24.2301 50.0162 24.1738C50.1007 24.1513 49.9937 24.1738 50.0781 24.1625C50.2357 24.1344 50.3145 24.14 50.3877 24.1119H50.4271H50.4665H50.5059C50.6522 24.0443 50.6747 24.0894 50.8379 24.0556L50.928 24.0218C50.9336 24.0218 50.9449 24.0162 50.9449 24.0162C51.0743 23.9881 51.2826 24.005 51.4401 23.9487C51.6146 23.8868 51.6034 23.9487 51.8172 23.8755L51.8566 23.8642C51.9298 23.8474 51.9692 23.8474 52.0592 23.8023H52.0986C52.2168 23.7911 52.487 23.7404 52.5151 23.7292H52.5545C52.6446 23.6841 52.684 23.6898 52.7571 23.6673C52.7628 23.6673 52.774 23.6616 52.774 23.6616L53.2749 23.5434C53.3762 23.5153 53.3256 23.5491 53.4269 23.504H53.4663H53.5057H53.5451C53.6239 23.4647 53.6632 23.4647 53.7252 23.4478L54.046 23.3408C54.1529 23.3071 54.2092 23.3408 54.3386 23.2789H54.378L54.7607 23.1664C54.8677 23.1382 54.8226 23.1382 54.9465 23.127H54.9859C55.0084 23.1157 55.0534 23.0988 55.0646 23.0932C55.1378 23.0594 55.0984 23.0763 55.1378 23.0482H55.1772H55.2166C55.2898 23.0144 55.2729 23.02 55.3742 22.9975L55.8582 22.823H55.8976C55.9201 22.8118 55.9651 22.7949 55.9764 22.7893C56.0496 22.7555 56.0102 22.7724 56.0496 22.7443C56.1396 22.7049 56.1734 22.7386 56.3141 22.6711H56.3535L56.466 22.5979H56.5054C56.5561 22.5754 56.6068 22.5585 56.663 22.5304C56.7362 22.4966 56.6574 22.5304 56.7362 22.491C56.7812 22.4685 56.7981 22.4685 56.8431 22.446C56.8488 22.4403 56.86 22.4235 56.8656 22.4291L57.3384 22.1814C57.344 22.1758 57.3553 22.1702 57.3609 22.1702C57.3665 22.1646 57.3778 22.1589 57.3834 22.1533C57.3891 22.1477 57.4003 22.142 57.4059 22.1364L57.7099 21.9845C57.7549 21.9619 57.7718 21.962 57.8168 21.9394C57.8731 21.9113 57.8843 21.9057 57.9406 21.8775C58.0307 21.8325 58.0813 21.81 58.1657 21.765C58.2445 21.7256 58.3233 21.6862 58.3909 21.6524L58.6498 21.5342H58.6891C58.7173 21.5173 58.7792 21.5004 58.7961 21.4892C58.8692 21.4498 58.8524 21.4442 58.9086 21.416L59.5615 21.1515H59.6009H59.6403L60.6702 20.7744C60.7547 20.7407 60.6308 20.7744 60.7659 20.7294C60.9123 20.6844 60.7884 20.7519 60.9235 20.6956H60.9629C61.0304 20.6619 61.0867 20.6506 61.1543 20.6225H61.1937C61.2781 20.5887 61.2499 20.6112 61.3512 20.5887C61.4188 20.5718 61.4132 20.5774 61.4469 20.5662C61.4863 20.5606 61.4807 20.5662 61.5313 20.5437H61.5707H61.6101H61.6495L61.9422 20.448C62.1729 20.3973 62.0942 20.538 62.0942 20.5662V20.7013C62.0942 20.7069 62.0942 20.7181 62.0942 20.7181V20.9995C62.0942 21.0052 62.0885 21.0164 62.0885 21.0164C62.0716 21.1008 62.111 21.1402 62.0716 21.2247L62.0041 21.3597C61.869 21.6524 61.8859 21.5455 61.7565 21.7031C61.6552 21.8269 61.7677 21.7593 61.6495 21.8944C61.5707 22.007 61.5764 21.9845 61.5257 22.0633ZM58.7229 20.6225H58.7623L58.7285 20.6675L58.7229 20.6225ZM57.9631 20.9264H58.0025L57.9688 20.9714L57.9631 20.9264ZM69.3206 21.5286H69.36L69.3263 21.5736L69.3206 21.5286ZM74.3578 21.6805V21.7199L74.3128 21.6862L74.3578 21.6805ZM68.7916 21.7199V21.7593L68.7466 21.7256L68.7916 21.7199ZM55.9933 21.8325H56.0327L55.9989 21.8775L55.9933 21.8325ZM57.6986 22.0239H57.6592L57.693 21.9788L57.6986 22.0239ZM61.5257 22.0633H61.5651L61.5313 22.1083L61.5257 22.0633ZM57.3947 22.1758H57.3553L57.3891 22.1308L57.3947 22.1758ZM61.3738 22.2152H61.4132L61.3794 22.2602L61.3738 22.2152ZM54.7832 22.2884H54.8226L54.7889 22.3334L54.7832 22.2884ZM61.295 22.2884H61.3344L61.3006 22.3334L61.295 22.2884ZM60.7659 22.6655H60.8053L60.7715 22.7105L60.7659 22.6655ZM53.2693 22.7443H53.3087L53.2749 22.7893L53.2693 22.7443ZM56.0327 22.778H55.9933L56.0271 22.733L56.0327 22.778ZM55.1266 23.0819H55.0872L55.1209 23.0369L55.1266 23.0819ZM48.7274 23.3465H48.7668L48.733 23.3915L48.7274 23.3465ZM42.9699 23.9543H43.0092L42.9755 23.9993L42.9699 23.9543ZM49.369 24.2976H49.3296L49.3634 24.2526L49.369 24.2976ZM40.7017 24.5621H40.7411L40.7074 24.6072L40.7017 24.5621ZM31.7643 25.4683H31.8037L31.7699 25.5133L31.7643 25.4683ZM37.6682 26.2281C37.4487 26.3856 37.7695 26.2224 37.5556 26.38L37.4037 26.532C37.398 26.5376 37.3868 26.5376 37.3811 26.5489L37.0829 26.7064C36.8408 26.8303 36.8859 26.7515 36.7621 26.8359C36.6945 26.8697 36.6382 26.8809 36.5707 26.9091H36.5313C36.4638 26.9428 36.4075 26.9541 36.3399 26.9822H36.3005L36.0191 27.0835C35.9235 27.106 35.9516 27.1004 35.8841 27.1342H35.8447C35.7434 27.1848 35.6758 27.1848 35.6252 27.1961C35.5182 27.2299 35.6364 27.1961 35.5295 27.2355L35.3888 27.2861H35.3494H35.31C35.1693 27.3537 34.7866 27.3818 34.6684 27.4381H34.629C34.4939 27.5 34.3757 27.4775 34.2857 27.5113H34.2463C34.1619 27.545 34.19 27.5225 34.0887 27.545C34.0212 27.5619 34.0268 27.5563 33.993 27.5675C33.9536 27.5732 33.9593 27.5675 33.9086 27.5901H33.8692C33.7904 27.6294 33.6779 27.6407 33.6103 27.6463L33.1038 27.7195C33.0137 27.7308 33.0925 27.7026 32.9969 27.742H32.9743L32.3946 27.7983C32.3609 27.8039 32.3102 27.8208 32.2483 27.8321C32.1977 27.8433 31.9275 27.8377 31.7981 27.894H31.7587H31.7193H31.6799H31.6405H31.6011C31.4604 27.9615 31.224 27.9221 31.1114 27.9671H31.072C30.9651 27.9784 30.9707 27.984 30.9088 27.984C30.5036 28.0065 30.2335 28.0797 29.8845 28.0966C29.8057 28.1022 29.8339 28.0797 29.7438 28.1135H29.7044C29.6031 28.1585 29.378 28.1078 29.2148 28.1866H29.1754C29.0853 28.1472 29.1529 28.1472 29.0628 28.1866H29.0234C28.9108 28.2317 28.5563 28.2317 28.4775 28.2542C28.3255 28.2879 28.3593 28.2936 28.1905 28.2992C28.0047 28.3104 27.9316 28.3048 27.8471 28.3386H27.8077C27.7177 28.378 27.7852 28.378 27.6952 28.3386H27.6558C27.5038 28.4118 27.3012 28.3611 27.0817 28.4118C26.9523 28.4399 26.9635 28.4455 26.7834 28.4512C26.6202 28.4568 26.5527 28.4624 26.4795 28.4905H26.4401C26.3501 28.5299 26.4176 28.5299 26.3275 28.4905H26.2882C26.2037 28.5299 26.0799 28.5468 26.0124 28.5468C25.973 28.5468 25.9617 28.5412 25.9223 28.5468L25.7704 28.5862C25.7647 28.5862 25.7197 28.5919 25.7141 28.5919L24.2845 28.7213H24.2451C24.1101 28.7832 23.9919 28.7607 23.9018 28.7945L23.6655 28.6144C23.581 28.5299 23.5248 28.4737 23.4403 28.3892C23.2096 28.1585 23.3053 28.2823 23.1758 28.1979C23.0464 28.1135 23.1871 28.136 22.8832 28.0347C22.523 27.9165 21.977 28.029 21.7406 28.1923L21.1328 28.4962L20.9246 28.5919C20.857 28.6256 20.8401 28.6369 20.7951 28.6594C20.7388 28.6875 20.6882 28.7044 20.6375 28.7269H20.5981L20.525 28.8001L20.086 28.9239C19.9622 28.9521 20.0972 28.8901 19.9565 28.9521H19.9171C19.8215 28.9915 19.8158 28.9633 19.7089 28.9746C19.6695 28.9802 19.5963 28.9914 19.5569 28.9971C19.45 29.014 19.5175 28.9858 19.4275 29.0252H19.3881C18.6677 29.0871 18.3975 29.0308 17.8741 29.0646L17.3113 29.0759C17.1819 29.0759 17.1594 29.0702 17.0355 29.0759L16.7767 29.0984H16.7373C16.6472 29.1378 16.7147 29.1378 16.6247 29.0984H16.5853C16.3433 29.2166 16.242 29.1153 16.0957 29.1715H16.09C16 29.2109 16.0675 29.2109 15.9775 29.1715H15.9381C15.848 29.2109 15.9156 29.2109 15.8255 29.1715H15.7861C15.6961 29.2109 15.7636 29.2109 15.6735 29.1715H15.6341C15.5441 29.2109 15.6116 29.2109 15.5216 29.1715H15.4822C15.3921 29.2109 15.4597 29.2109 15.3696 29.1715H15.3302C15.2402 29.2109 15.3077 29.2109 15.2177 29.1715H15.1783C15.0882 29.2109 15.1558 29.2109 15.0657 29.1715H15.0263C14.9363 29.2109 15.0038 29.2109 14.9138 29.1715H14.8744C14.7843 29.2109 14.8518 29.2109 14.7618 29.1715H14.7224C14.6436 29.2053 14.5367 29.2053 14.4579 29.1715H14.4185C14.3397 29.2053 14.2328 29.2053 14.154 29.1715H14.1202C14.0414 29.2053 13.9345 29.2053 13.8557 29.1715H13.8163C13.7375 29.2053 13.6305 29.2053 13.5518 29.1715H13.5124C13.4336 29.2053 13.3266 29.2053 13.2478 29.1715H13.2084C13.1296 29.2053 13.0227 29.2053 12.9439 29.1715H12.9045C12.8145 29.2109 12.882 29.2109 12.792 29.1715H12.7526C12.6625 29.2109 12.73 29.2109 12.64 29.1715H12.6006C12.5218 29.2053 12.4149 29.2053 12.3361 29.1715H12.2967C12.2066 29.2109 12.2742 29.2109 12.1841 29.1715H12.1504C12.0603 29.2109 12.1278 29.2109 12.0378 29.1715H11.9984C11.9083 29.2109 11.9759 29.2109 11.8858 29.1715H11.8464C11.7564 29.2109 11.8239 29.2109 11.7339 29.1715H11.6945C11.6044 29.1322 11.672 29.1322 11.5819 29.1715H11.5425L10.445 29.1322C10.3437 29.1322 10.2537 29.1322 10.1524 29.1265L9.9779 29.1096C9.97228 29.1096 9.96102 29.104 9.95539 29.0984C9.86534 29.1378 9.93288 29.1378 9.84283 29.0984H9.80343C9.71338 29.1378 9.78092 29.1378 9.69087 29.0984H9.65147L8.84666 29.0421C8.80726 29.0365 8.79037 29.0308 8.70033 29.0252H8.66093C8.55962 28.9858 8.49209 29.0083 8.39078 29.0083C8.31761 29.0083 8.07561 28.9746 8.01932 28.9521H7.98556C7.90676 28.9183 7.6535 28.9014 7.56345 28.8789C7.434 28.8507 7.47903 28.862 7.33832 28.8395C7.20888 28.8226 7.18074 28.8282 7.1132 28.8001H7.0738C6.94998 28.7382 6.92747 28.772 6.79803 28.7382L6.38717 28.575C6.28587 28.5299 6.4322 28.5468 6.24084 28.5299C6.33089 28.3949 6.40969 28.4005 6.6123 28.3555C6.7136 28.333 6.69672 28.3386 6.76989 28.3048H6.80928L7.42275 28.1078C7.67601 28.0234 7.71541 28.0572 7.86174 28.0122C7.86737 28.0122 7.87299 28.0065 7.87862 28.0065H7.97993H8.01932C8.16003 27.939 8.1938 27.9671 8.28385 27.9334H8.32324H8.36264H8.40204C8.55399 27.8602 8.70595 27.8883 8.77349 27.8715L9.38133 27.7645C9.40384 27.7589 9.77529 27.7476 9.88223 27.7082H9.92162C9.98916 27.6801 10.0004 27.6857 10.0792 27.6801C10.1017 27.6801 10.1749 27.6745 10.1861 27.6745C10.3494 27.6463 10.1242 27.697 10.2481 27.6632L10.2987 27.6351C10.3888 27.6745 10.3212 27.6745 10.4113 27.6351H10.4507C10.6083 27.697 10.4619 27.6126 10.6702 27.6182L11.2386 27.5788C11.3005 27.5788 11.3061 27.5844 11.3512 27.5732C11.4806 27.5394 11.323 27.5 11.475 27.5619H11.5144C11.6495 27.4944 11.8296 27.5281 11.9309 27.4887H11.9703C12.1447 27.5619 11.9815 27.4156 12.1616 27.4887H12.201L14.2834 27.2636H14.3228C14.4016 27.2299 14.5198 27.2467 14.6323 27.2355C14.7224 27.2242 14.8518 27.213 14.88 27.2073C14.97 27.2017 14.9419 27.213 15.0432 27.1905L15.7917 27.1117H15.8311H15.8705H15.9099L16.2138 27.0779C16.2195 27.0779 16.2814 27.0723 16.2814 27.0723C16.3602 27.0554 16.3208 27.0666 16.3602 27.0385C16.4502 27.0779 16.3827 27.0779 16.4727 27.0385H16.5121C16.6866 27.1117 16.5234 26.9653 16.7035 27.0385H16.7429C16.878 26.9822 17.2494 27.0441 17.7616 26.9935L18.4763 26.971C18.6396 26.9597 18.4144 26.8865 18.6002 26.9653H18.6396C18.7296 26.9259 18.6621 26.9259 18.7521 26.9653H18.7915L19.6188 26.9091C19.7483 26.9034 19.8665 26.9316 19.9678 26.8922H20.0072C20.0972 26.9316 20.0297 26.9316 20.1198 26.8922H20.1591H20.1985H20.2379C20.328 26.8528 20.2605 26.8528 20.3505 26.8922H20.3899C20.4912 26.8528 20.7276 26.8753 20.8345 26.8753L22.2134 26.8415C22.3035 26.8359 22.1628 26.8415 22.2866 26.8415C22.4216 26.8415 22.6862 26.8471 22.7706 26.8134H22.81C22.8888 26.8471 22.9957 26.8471 23.0745 26.8134H23.1139C23.204 26.8528 23.1364 26.8528 23.2265 26.8134H23.2659C23.4291 26.8809 23.2546 26.8134 23.3897 26.8077L24.4084 26.7965C24.4534 26.7909 24.4815 26.7796 24.5885 26.7796L25.973 26.7683C26.1812 26.7683 26.2431 26.7627 26.4007 26.7627C26.7103 26.7627 26.5527 26.7402 26.6821 26.7233L27.3181 26.667H27.3575H27.3969H27.4363C27.5263 26.6276 27.4588 26.6276 27.5488 26.667H27.5882C27.667 26.6333 27.774 26.6333 27.8528 26.667H27.8922C27.9935 26.6276 28.1342 26.6502 28.2411 26.6502C28.3143 26.6502 28.3368 26.6445 28.4268 26.6445L29.8226 26.5939H29.862C30.0308 26.667 29.8282 26.5995 30.0252 26.5714C30.0702 26.5657 30.1153 26.577 30.1772 26.5714C30.3291 26.5601 30.5824 26.5489 30.6612 26.5151H30.7006H30.74H30.7794C30.8863 26.4701 31.1846 26.4982 31.3872 26.4926C31.4604 26.4926 31.6855 26.4813 31.8206 26.4644C31.9275 26.4532 32.0063 26.4757 32.102 26.4363H32.1414C32.2314 26.4757 32.1639 26.4757 32.2539 26.4363H32.2933C32.3834 26.4757 32.3159 26.4757 32.4059 26.4363H32.4453C32.5353 26.4757 32.4678 26.4757 32.5579 26.4363H32.5973C32.7717 26.5095 32.6085 26.3631 32.7886 26.4363H32.828C32.9181 26.3969 32.8505 26.3969 32.9406 26.4363H32.98C33.1207 26.38 33.464 26.4419 33.7004 26.4025C33.8242 26.38 33.8467 26.3688 33.9874 26.3462C34.2969 26.3012 34.7134 26.335 34.8372 26.2843H34.8766H34.916H34.9554L35.6758 26.2449C35.9178 26.2618 36.233 26.2562 36.4412 26.1999L37.7582 26.0986C37.6457 26.2337 37.7357 26.0705 37.6682 26.2281ZM37.6682 26.2281H37.7076L37.6738 26.2731L37.6682 26.2281ZM57.5129 26.38H57.5523L57.5185 26.425L57.5129 26.38ZM36.7621 26.8359H36.8014L36.7677 26.8809L36.7621 26.8359ZM16.3545 27.0216H16.3152L16.3489 26.9766L16.3545 27.0216ZM56.4492 27.1342H56.4886L56.4548 27.1792L56.4492 27.1342ZM35.4001 27.2861H35.4394L35.4057 27.3312L35.4001 27.2861ZM38.3154 27.3255H38.276L38.3098 27.2805L38.3154 27.3255ZM6.01572 27.5901H6.05512L6.02135 27.6351L6.01572 27.5901ZM10.2987 27.6294H10.2593L10.2931 27.5844L10.2987 27.6294ZM53.7252 27.742H53.7646L53.7308 27.787L53.7252 27.742ZM36.9534 27.9334H36.914L36.9478 27.8883L36.9534 27.9334ZM72.6525 30.3197V30.3591L72.6412 30.5336C72.63 30.7193 72.5568 30.8656 72.4611 30.9838C72.388 31.0795 72.5061 30.9613 72.3992 31.0907C72.1685 31.3609 72.3936 31.1639 72.2304 31.3384C71.8814 31.7042 72.2304 31.3721 71.9602 31.6761C71.8702 31.783 71.9321 31.6873 71.8758 31.8224C71.8645 31.8505 71.8589 31.8618 71.8477 31.8899L71.7069 32.1713C71.7069 32.177 71.7013 32.1882 71.6957 32.1882C71.6901 32.1938 71.6901 32.2164 71.6844 32.2276C71.6676 32.2557 71.7013 32.2389 71.6282 32.2951C71.5269 32.0869 71.645 31.6817 71.6676 31.4622V31.4172C71.7013 31.344 71.707 31.3046 71.6619 31.2371C71.6113 31.1639 71.5494 31.1189 71.4818 31.0738H71.4424L71.3355 30.9951L71.4424 30.7756V30.7362C71.4875 30.6292 71.4424 30.6968 71.4762 30.5786C71.4987 30.4942 71.51 30.4885 71.5325 30.3872C71.5831 30.1677 71.6 30.3422 71.6113 30.0664C71.6169 29.9651 71.7632 29.5655 71.7857 29.301C71.8251 29.2447 71.842 29.2672 71.842 29.1209L71.8983 28.9239C71.9264 28.5637 71.9771 28.7551 71.9884 28.4962C71.9996 28.3048 71.994 28.5919 72.0672 28.2542C72.0728 28.2148 72.0728 28.2373 72.0897 28.2035C72.2022 28.0122 72.0953 28.1416 72.1628 27.984C72.1966 27.9052 72.2191 27.9052 72.2754 27.8264C72.5118 27.984 72.3711 27.7758 72.6018 27.9503L72.7482 28.1529C72.7482 28.1529 72.7594 28.2429 72.765 28.2767C72.7932 28.6706 72.7031 28.6481 72.8101 29.0702C72.8382 29.1715 72.8044 29.1997 72.8382 29.2447C72.8382 29.2447 72.8495 29.256 72.8551 29.256C72.8551 29.256 72.8663 29.2616 72.872 29.2672C72.872 29.2672 72.8832 29.2729 72.8889 29.2785L72.9057 29.3066C72.9057 29.3066 72.917 29.4023 72.9226 29.453C72.8044 29.4642 72.7088 29.4924 72.6469 29.5543C72.5737 29.6274 72.6018 29.7175 72.6018 29.8019C72.6018 30.3253 72.6243 29.937 72.6525 30.3197ZM21.7688 28.1979H21.8082L21.7744 28.2429L21.7688 28.1979ZM52.8134 28.1979H52.8528L52.819 28.2429L52.8134 28.1979ZM21.1609 28.5018H21.2003L21.1666 28.5468L21.1609 28.5018ZM20.5587 28.8057H20.5981L20.5644 28.8507L20.5587 28.8057ZM23.9243 28.8057V28.8451L23.8793 28.8114L23.9243 28.8057ZM52.0592 28.8057H52.0986L52.0649 28.8507L52.0592 28.8057ZM51.9804 28.8789H52.0198L51.9861 28.9239L51.9804 28.8789ZM4.95764 28.9914V28.9521L5.00266 28.9858L4.95764 28.9914ZM71.7857 29.2954H71.7464L71.7801 29.2503L71.7857 29.2954ZM72.9564 29.4079L72.9677 29.4192C72.9677 29.4192 72.9564 29.4136 72.9564 29.4079ZM17.9811 29.9764V29.937L18.0261 29.9707L17.9811 29.9764ZM17.8291 30.1677H17.8685L17.8347 30.2127L17.8291 30.1677ZM26.1981 30.1677V30.2071L26.1531 30.1734L26.1981 30.1677ZM45.3956 30.3197H45.435L45.4012 30.3647L45.3956 30.3197ZM44.8665 30.6968H44.9059L44.8722 30.7418L44.8665 30.6968ZM12.7188 31.2258V31.2652L12.6738 31.2314L12.7188 31.2258ZM14.3453 31.2652V31.2258L14.3903 31.2596L14.3453 31.2652ZM44.1067 31.3046H44.1461L44.1124 31.3496L44.1067 31.3046ZM43.7296 31.5297H43.769L43.7353 31.5747L43.7296 31.5297ZM71.6338 32.2895V32.3289L71.5888 32.2951L71.6338 32.2895ZM41.0788 32.8186H41.1182L41.0844 32.8636L41.0788 32.8186ZM43.9154 33.0831H43.876L43.9097 33.0381L43.9154 33.0831ZM27.4081 33.4996V33.539L27.3631 33.5052L27.4081 33.4996ZM40.4372 33.539H40.3978L40.4316 33.4939L40.4372 33.539ZM14.047 33.8429V33.8035L14.092 33.8372L14.047 33.8429ZM43.5777 34.2594H43.6171L43.5833 34.3044L43.5777 34.2594ZM45.6995 34.5633H45.7389L45.7051 34.6083L45.6995 34.5633ZM42.4014 34.901H42.362L42.3958 34.8559L42.4014 34.901ZM43.1218 35.1655H43.1612L43.1274 35.2105L43.1218 35.1655ZM45.6207 35.582V35.5426L45.6657 35.5763L45.6207 35.582ZM46.8701 35.582H46.8307L46.8645 35.5369L46.8701 35.582ZM46.5324 35.7001H46.5718L46.5381 35.7452L46.5324 35.7001ZM14.4973 35.8127V35.7733L14.5423 35.8071L14.4973 35.8127ZM50.9955 37.0228C51.1813 37.2985 50.9843 37.0959 51.1756 37.2985C51.2994 37.428 51.2038 37.3323 51.2488 37.4336L51.8397 38.0752C51.8454 38.0808 51.8566 38.0865 51.8623 38.0921C51.9073 38.1202 51.9073 38.1315 51.9467 38.1596L52.2393 38.3566C52.2056 38.4298 52.2112 38.4129 52.1887 38.5142L52.0705 39.0826C52.0649 39.1558 52.0818 39.0658 52.0649 39.1389L52.0311 39.2346C51.9467 39.4766 52.0367 39.3472 51.9748 39.4879V39.5273C51.9467 39.6004 51.9692 39.5554 51.9523 39.6117L51.5977 40.1689L51.2938 40.3996C51.2882 40.4052 51.2826 40.4109 51.2769 40.4109L50.9955 40.6191L50.5396 40.923C50.4834 40.9624 50.5171 40.9455 50.4721 40.9624L50.4327 40.9737C50.2751 41.03 50.3989 41.0131 50.2301 41.1031C50.1232 41.1594 50.1682 41.12 50.0725 41.2101L49.808 41.4971C49.6842 41.756 49.6392 41.8517 49.7348 42.1443C49.7967 42.3301 49.8699 42.3582 49.8755 42.4989C49.8924 42.724 50.0275 42.7071 49.9093 42.9773C49.808 43.2137 49.9543 43.0898 49.8136 43.2981V43.3375C49.7967 43.5626 49.8193 43.9566 49.7405 44.1311L49.5153 43.9397L49.4422 43.8665L49.3803 43.8215C49.3746 43.8215 49.369 43.8102 49.3634 43.8102L49.279 43.7202C49.279 43.7202 49.2733 43.7089 49.2677 43.7033C49.2564 43.6864 49.2846 43.6864 49.2114 43.6358C49.1608 43.5626 49.1157 43.5176 49.0482 43.4501C48.9469 43.3544 48.9694 43.3881 48.8794 43.3881L48.4516 43.3319H48.4122C48.3222 43.2925 48.3897 43.2925 48.2997 43.3319H48.2603C48.1927 43.2981 48.1365 43.2868 48.0689 43.2587H48.0295C47.962 43.2249 47.9057 43.2137 47.8382 43.1855H47.7988C47.6468 43.0842 47.7481 43.1743 47.5905 43.0899C47.5793 43.0842 47.5511 43.0673 47.5399 43.0617L47.4948 43.0336C47.4442 43.0111 47.3935 42.9942 47.3373 42.966C47.2641 42.9323 47.3429 42.966 47.2641 42.9266C47.2191 42.9041 47.2022 42.9041 47.1572 42.8816C47.1234 42.8535 47.1628 42.8591 47.0615 42.831L46.887 42.7747C46.8364 42.7522 46.8251 42.7522 46.7801 42.7297H46.7407C46.5831 42.6227 46.6844 42.7071 46.5493 42.6565H46.5099C46.4311 42.6227 46.4705 42.6396 46.3805 42.6283C46.2904 42.6171 46.2229 42.6115 46.1328 42.6227L45.874 42.7015C45.8683 42.7071 45.8571 42.7128 45.8514 42.7184C45.8458 42.724 45.8346 42.7297 45.8289 42.7353L45.5757 42.9379C45.3674 43.118 45.5363 43.0279 45.3787 43.1518C45.3731 43.1574 45.3618 43.163 45.3562 43.1686L45.1085 43.3375L44.8046 43.4894H44.7652C44.6752 43.5288 44.7427 43.5288 44.6527 43.4894H44.6133C44.5232 43.5288 44.5907 43.5288 44.5007 43.4894H44.4613C44.3713 43.5288 44.4388 43.5288 44.3487 43.4894H44.3093C44.2193 43.5288 44.2868 43.5288 44.1968 43.4894H44.1574C44.0673 43.4501 44.1349 43.4501 44.0448 43.4894H44.0054C43.9041 43.4501 43.9773 43.4838 43.876 43.4613L43.6227 43.3938C43.5608 43.3825 43.5214 43.3769 43.4426 43.3375H43.4032C43.1274 43.1518 43.3413 43.2925 43.1781 43.2249L43.392 42.7634C43.6227 42.4933 43.392 42.679 43.6002 42.4764C43.8141 42.2681 43.6509 42.3582 43.7747 42.2738C43.8197 42.2456 43.7859 42.3075 43.8591 42.2119C43.9604 42.088 43.769 42.2569 43.9041 42.1331L43.9435 42.1049C43.9491 42.0993 43.9604 42.0937 43.966 42.088L44.0392 42.0149L44.4951 41.559L44.8102 41.2213C44.8102 41.2213 44.8215 41.2101 44.8271 41.2101L44.8384 41.1988C44.8722 41.1538 44.8553 41.1088 44.9847 41.0187L45.1029 40.9512C45.1873 40.9118 45.2492 40.8836 45.3674 40.878C45.4237 40.7936 45.4293 40.8105 45.4912 40.7373C45.57 40.6416 45.677 40.3208 45.7558 40.152C45.8514 39.9381 45.6882 40.2308 45.8852 39.9606C45.9584 39.8593 45.8402 39.8762 46.0484 39.7411L46.3411 39.5441C46.3467 39.5385 46.358 39.5329 46.3636 39.5329C46.3692 39.5273 46.3805 39.5216 46.3861 39.516C46.4536 39.471 46.4536 39.4541 46.5099 39.4147C46.6675 39.3021 46.4874 39.5104 46.8701 39.1277C46.9546 39.0432 47.0108 38.987 47.0953 38.9025L47.3485 38.6999C47.3541 38.6999 47.3654 38.6887 47.371 38.683L47.4836 38.6099H47.523L47.6356 38.5367C47.6412 38.5311 47.6524 38.5255 47.6581 38.5198L47.7481 38.4579L47.9564 38.2159C48.0633 38.1033 47.9001 38.2834 47.9958 38.1765L48.446 37.7488C48.4516 37.7432 48.4798 37.7319 48.491 37.7263C48.5642 37.6756 48.5417 37.6812 48.598 37.6418L49.0032 37.4055H49.0426C49.0932 37.3717 49.1045 37.3492 49.1495 37.321C49.2058 37.2873 49.2452 37.2816 49.3071 37.2535H49.3465C49.369 37.2423 49.414 37.2254 49.4253 37.2197C49.4985 37.186 49.4591 37.2029 49.4985 37.1747C49.5998 37.1241 49.6673 37.1241 49.7179 37.1128C49.8305 37.0734 49.6954 37.1072 49.8418 37.0678C49.9431 37.0396 49.8924 37.0734 49.9937 37.0284H50.0331L50.292 36.944C50.2976 36.944 50.3089 36.9327 50.3145 36.9327L50.7029 36.8145C50.8211 36.7751 50.6691 36.8089 50.8267 36.7639C50.8267 36.7695 50.8323 36.7695 50.8323 36.7807C50.8323 36.792 50.8436 36.8089 50.8436 36.8145C50.8436 36.8201 50.8492 36.8314 50.8492 36.8314L50.9955 37.0228ZM43.9154 37.0228H43.876L43.9097 36.9777L43.9154 37.0228ZM46.3017 36.9834H46.3411L46.3073 37.0284L46.3017 36.9834ZM50.9955 37.0228V36.9834L51.0406 37.0171L50.9955 37.0228ZM49.521 37.1747H49.4816L49.5153 37.1297L49.521 37.1747ZM58.8749 37.7038H58.9143C59.1169 37.7882 59.7304 37.8332 59.7866 37.8557H59.826H59.8654H59.9048C60.0737 37.9345 60.372 37.867 60.6308 37.9458L60.9291 37.9683C61.0136 37.9795 61.1205 37.9908 61.1486 37.9908C61.2331 37.9964 61.2162 37.9739 61.3062 38.0133H61.3456H61.385H61.4244C61.5145 38.0527 61.4469 38.0527 61.537 38.0133H61.5764C61.6777 38.0527 61.672 38.0189 61.7565 38.0358C61.7565 38.0358 61.8747 38.064 61.8803 38.064C61.9647 38.0808 61.8915 38.0471 61.9872 38.0865H62.0266C62.0716 38.109 62.0829 38.109 62.1335 38.1315C62.2123 38.1653 62.1448 38.1484 62.2236 38.1709C62.2686 38.1878 62.3362 38.1878 62.4431 38.2328H62.4825H62.5219H62.5613C62.6344 38.2666 62.8765 38.2553 62.9102 38.2497L63.0622 38.2103C63.1185 38.2047 63.1916 38.1878 63.2817 38.2328H63.3211C63.5406 38.3904 63.2198 38.2272 63.4336 38.3848L63.5293 38.6211C63.715 39.1052 63.5181 39.319 63.6306 39.5104L63.8951 39.9663C63.9571 40.0901 64.0021 40.2927 63.9796 40.4221C63.8783 40.9849 63.9852 40.6979 63.9852 41.0468C63.9796 41.3339 63.9683 41.165 64.019 41.3677C64.0527 41.4971 63.9908 41.3958 64.109 41.5759L64.2722 41.9079V41.9473L64.2159 42.1443C64.2047 42.1894 64.2159 42.1443 64.1934 42.2062C64.1765 42.2456 64.1597 42.2625 64.1484 42.3301L64.1203 42.4708C64.0978 42.5608 64.109 42.5045 64.1034 42.5833L64.0696 42.7578C64.0696 42.7578 64.0696 42.8197 64.0696 42.8366L64.0246 43.9228C64.019 43.9903 63.9852 44.1704 63.9852 44.2098C63.9739 44.5982 63.912 44.8458 63.912 44.9302C63.912 45.0372 63.9233 45.1272 63.8839 45.251L63.8501 45.3467C63.8332 45.3917 63.8445 45.3242 63.8332 45.403C63.8107 45.555 63.8839 45.6675 63.777 45.887L63.822 45.9602L63.777 46.039C63.8164 46.0784 63.8164 45.9714 63.8164 46.1515V46.1909C63.8783 46.3429 63.8164 46.1966 63.8389 46.2979C63.8389 46.3091 63.8445 46.3373 63.8501 46.3429C63.8726 46.3992 63.8726 46.3879 63.8951 46.4161C63.9345 46.5061 63.9345 46.4386 63.8951 46.5286C64.0809 46.5455 64.0133 46.6074 64.1878 46.6243C64.306 46.6356 64.2891 46.5793 64.3848 46.72L64.1597 46.7594H64.1203C63.6869 46.7931 63.5687 46.7706 63.141 46.7706L62.944 46.7594H62.9046H62.792H62.7526H62.6401H62.6007H62.4881H62.4487H62.3362H62.2968H62.1842H62.1448H62.0322H61.9928H61.8803H61.8409H61.7283H61.6889C61.5989 46.72 61.6664 46.72 61.5764 46.7594H61.537H61.4244H61.385C61.2331 46.6975 61.3456 46.8325 61.2331 46.6862C61.3738 46.675 61.3062 46.6806 61.34 46.6243C61.3456 46.613 61.3738 46.568 61.3738 46.568C61.5257 46.281 61.3794 46.523 61.6326 46.2528L61.6889 46.1909C61.6889 46.1909 61.7227 46.1459 61.7396 46.129C61.9141 45.9264 61.8409 46.0896 61.9422 45.8645C61.976 45.797 62.0154 45.7745 62.066 45.7407L62.1504 45.6169C62.1504 45.6112 62.1561 45.6056 62.1561 45.6C62.1561 45.5944 62.1617 45.5887 62.1617 45.5831C62.1617 45.5775 62.1673 45.5718 62.1673 45.5662L62.2405 45.4705C62.2799 45.4255 62.3418 45.3749 62.3643 45.3355C62.4543 45.1835 62.2461 45.4199 62.4825 45.1441L62.5951 44.9584C62.6007 44.9528 62.6063 44.9415 62.6119 44.9359C62.6513 44.8908 62.7132 44.8402 62.7358 44.8008C62.8089 44.6713 62.6288 44.812 62.8089 44.677L62.8877 44.5475C62.8877 44.5475 62.8933 44.5363 62.899 44.5363C62.899 44.5306 62.9046 44.525 62.9046 44.5194C63.0059 44.3618 63.0115 44.4237 63.0566 44.3111L63.1522 44.1479C63.3323 44.0185 63.1016 44.1592 63.2761 43.9678C63.3155 43.9228 63.3267 43.9284 63.3549 43.8722C63.3999 43.7765 63.2929 43.8609 63.4168 43.7709C63.4843 43.6133 63.3886 43.7765 63.4562 43.6189C63.383 43.6189 63.3548 43.6189 63.2817 43.6301C63.1916 43.6414 63.231 43.6245 63.1522 43.6583H63.1128C62.9778 43.7202 62.8596 43.6977 62.7695 43.7315H62.7301C62.6626 43.7652 62.6063 43.7765 62.5388 43.8046H62.4994C62.4881 43.8102 62.46 43.8328 62.4544 43.8328L62.3756 43.8609C62.3699 43.8609 62.3587 43.8665 62.3587 43.8665L62.0097 44.0297H61.9703C61.8634 44.0804 61.8127 44.0523 61.7058 44.1029H61.6664H61.627H61.5876C61.537 44.1254 61.5201 44.1423 61.4357 44.1423C61.4244 44.1423 61.3794 44.1423 61.3681 44.1367C61.2893 44.1198 61.3287 44.1254 61.2893 44.0973C61.188 44.086 61.188 44.0804 61.098 44.0579L60.9854 44.2098C60.9742 44.0635 60.9348 43.6921 60.8785 43.5626C60.8503 43.5063 60.8672 43.5457 60.856 43.5007L60.7603 43.2193L60.6815 43.118C60.4451 42.8647 60.175 42.921 60.1693 43.1461C60.1637 43.2362 60.175 43.2249 60.1637 43.3206C60.1468 43.4838 60.1525 43.9116 60.1975 44.0691C60.22 44.1536 60.2763 44.4293 60.2481 44.5025C60.1918 44.6488 60.2031 44.5138 60.068 44.6207C60.0118 44.6657 60.0286 44.6657 59.9611 44.7051L59.5559 45.1329C59.4602 44.9921 59.494 45.0935 59.4996 44.812C59.4996 44.767 59.5052 44.7839 59.4996 44.7389L59.3983 44.48L59.3251 44.4406C59.387 44.3449 59.6459 44.0579 59.6459 43.8496C59.6459 43.7652 59.6628 43.7427 59.6234 43.6527C59.3251 43.5063 59.4264 43.5739 59.2351 43.557C58.8186 43.5176 59.0437 43.4557 58.7511 43.6527C58.5484 43.7934 58.7848 43.6695 58.5991 43.8046L58.4471 43.9566C58.3627 44.086 58.3346 44.0523 58.132 44.3843L58.1038 44.4293C58.0644 44.4744 58.0982 44.4181 58.0644 44.4631C58.0081 44.5363 58.1038 44.5475 57.9125 44.5982C57.8787 44.4462 57.9181 44.435 57.8731 44.3337L57.8337 44.2943V44.2549V44.1423C57.7099 44.0579 57.783 44.041 57.6086 44.0297C57.5748 44.1085 57.6029 44.0466 57.5917 44.0917C57.5298 44.3224 57.4735 44.5081 57.5185 44.8289C57.5298 44.8908 57.5129 44.8233 57.541 44.8965C57.541 44.9021 57.5523 44.9077 57.5748 44.9696C57.6311 45.1385 57.5241 44.9753 57.6254 45.2229C57.7099 45.4143 57.6142 45.2961 57.6986 45.5381L57.7436 45.7069C57.7436 45.9489 57.8224 46.0165 57.7605 46.0784C57.7549 46.0784 57.7493 46.0784 57.7436 46.084L56.9276 46.0784H56.8882C56.7981 46.1178 56.8656 46.1178 56.7756 46.0784H56.7362H56.6968H56.6574H56.618H56.5786C56.4886 46.039 56.5561 46.039 56.466 46.0784H56.4267C56.3141 46.0221 55.6049 46.0559 55.4811 46.0052H55.4417C54.9915 45.9658 55.1828 45.9489 54.6369 45.9489C54.5919 45.9489 54.5806 45.9546 54.5244 45.9489C54.4568 45.9489 54.4681 45.9377 54.3443 45.9264H54.3049C54.2486 45.887 54.2823 45.9039 54.2373 45.887C54.2317 45.887 54.2204 45.8814 54.2148 45.8814C54.2092 45.8814 54.1979 45.8758 54.1979 45.8758L54.1585 45.8645C54.1248 45.8476 54.0516 45.7857 54.0234 45.7519L53.8602 45.2792C53.8602 45.1103 53.8771 45.1891 53.8152 45.0878L53.7533 44.9584C53.7364 44.9302 53.7139 44.9134 53.6858 44.874C53.5282 44.9528 53.1849 44.8908 53.0442 44.9471H53.0048C52.9091 44.9865 52.971 44.964 52.8809 44.964C52.819 44.964 52.8247 44.964 52.7008 44.9865C52.4757 45.0259 52.5151 44.9753 52.3575 44.8683L52.2619 44.812C52.1887 44.7614 52.2112 44.7783 52.1718 44.7164C51.9579 44.5588 52.2731 44.722 52.0592 44.5644C52.0424 44.3899 52.0367 44.435 52.0198 44.2605L51.8848 43.9453C51.8679 43.8328 51.9017 44.0016 51.8904 43.889L51.5302 43.0111C51.5583 42.9098 51.6484 42.7634 51.7216 42.7071C51.7778 42.5664 51.6484 42.7015 51.8116 42.5721L51.9748 42.3976L51.9861 42.3863L52.0818 42.2738C52.0874 42.2681 52.093 42.2569 52.0986 42.2513L52.3688 42.0261L52.5601 41.8742L52.6333 41.8348C52.684 41.801 52.6389 41.8404 52.7008 41.7898L52.8753 41.6209C52.8809 41.6153 52.8922 41.6097 52.8978 41.604L53.0892 41.4971C53.0948 41.4915 53.1117 41.4746 53.1117 41.4802C53.1173 41.4858 53.1286 41.469 53.1342 41.4633L53.2074 41.4239C53.5282 41.2551 53.1792 41.5084 53.5394 41.272L53.8152 41.1594C53.8433 41.1482 53.8771 41.1313 53.8884 41.12C53.9334 41.0975 53.9897 41.0694 54.0403 41.0468L54.1867 40.9624C54.5131 40.8048 54.3668 40.8386 54.7551 40.5291L54.8395 40.439C54.9802 40.2251 55.014 40.2533 55.059 40.1745C55.1322 40.045 54.9521 40.1801 55.1322 40.0507L55.2447 39.8762L55.256 39.8649L55.3067 39.8143C55.5318 39.516 55.5374 39.5329 55.7794 39.364L55.8526 39.2909L56.0608 39.1614C56.179 39.0939 56.089 39.1052 56.3141 38.9982C56.3816 38.9644 56.4323 38.9476 56.4998 38.9138H56.5392L56.7249 38.8294C56.7362 38.8237 56.7643 38.8069 56.77 38.8069L56.8262 38.7562C57.0063 38.593 57.0063 38.6943 57.1696 38.5255L57.3328 38.4016L57.344 38.3904L57.3834 38.351C57.3891 38.3454 57.4003 38.3397 57.4003 38.3397C57.4059 38.3397 57.4397 38.3172 57.4678 38.2947C57.5129 38.2609 57.5072 38.2609 57.5579 38.2272L57.6029 38.199C57.7493 38.1146 57.7324 38.1427 57.8224 37.9233C57.9575 37.8219 57.8112 37.8782 57.9294 37.6137C57.9913 37.473 57.9237 37.3773 58.0588 37.4111C58.1657 37.4392 58.0701 37.4449 58.2108 37.4955L58.8749 37.7038ZM45.8514 37.5912H45.8908L45.8571 37.6362L45.8514 37.5912ZM71.3299 37.7432V37.7825L71.2848 37.7488L71.3299 37.7432ZM57.8506 37.9345H57.8112L57.8449 37.8895L57.8506 37.9345ZM71.7857 38.0471V38.0865L71.7407 38.0527L71.7857 38.0471ZM66.0282 38.2328H65.9888L66.0226 38.1878L66.0282 38.2328ZM66.1408 38.2328V38.1934L66.1858 38.2272L66.1408 38.2328ZM63.4168 38.3848V38.3454L63.4618 38.3791L63.4168 38.3848ZM47.7819 38.4635H47.7425L47.7763 38.4185L47.7819 38.4635ZM44.7877 38.6549H44.8271L44.7934 38.6999L44.7877 38.6549ZM47.3992 38.6887H47.3598L47.3935 38.6436L47.3992 38.6887ZM26.3107 38.8406V38.8012L26.3557 38.835L26.3107 38.8406ZM66.5966 38.8406V38.8012L66.6417 38.835L66.5966 38.8406ZM44.3319 38.9532H44.3713L44.3375 38.9982L44.3319 38.9532ZM55.8807 39.2965H55.8413L55.8751 39.2515L55.8807 39.2965ZM65.8762 39.2965H65.8368L65.8706 39.2515L65.8762 39.2965ZM55.8076 39.3697H55.7682L55.8019 39.3246L55.8076 39.3697ZM46.4143 39.5216H46.3749L46.4086 39.4766L46.4143 39.5216ZM24.9881 39.7524H24.9487L24.9824 39.7074L24.9881 39.7524ZM70.5363 39.713H70.5757L70.5419 39.758L70.5363 39.713ZM16.4671 39.9043V39.8649L16.5121 39.8987L16.4671 39.9043ZM70.3843 39.8649H70.4237L70.39 39.91L70.3843 39.8649ZM43.5777 40.0169H43.6171L43.5833 40.0619L43.5777 40.0169ZM51.6034 40.1689H51.6428L51.609 40.2139L51.6034 40.1689ZM50.9955 40.6247H51.0349L51.0012 40.6698L50.9955 40.6247ZM65.8762 40.8105H65.8368L65.8706 40.7654L65.8762 40.8105ZM45.131 40.9624H45.0916L45.1254 40.9174L45.131 40.9624ZM50.5453 40.923H50.5847L50.5509 40.9681L50.5453 40.923ZM54.2148 40.9624H54.1754L54.2092 40.9174L54.2148 40.9624ZM23.0576 44.3337V44.3731L23.007 44.6038C23.0013 44.7558 22.9732 45.313 23.0182 45.4311L23.1533 45.6675C23.2152 45.8814 23.3334 45.9883 23.5248 46.1009C23.5304 46.1065 23.5416 46.1121 23.5473 46.1178C23.8737 46.2754 23.6655 46.1684 23.9581 46.236C23.9919 46.2416 24.0257 46.2472 24.0313 46.2472L24.3465 46.523C24.3971 46.6243 24.3521 47.2434 24.3577 47.3728C24.3633 47.491 24.4252 47.5473 24.4815 47.6374C24.5772 47.7949 24.4534 47.598 24.5322 47.7781C24.3971 47.7893 24.4196 47.8006 24.3296 47.7949C24.2564 47.7949 24.2339 47.7781 24.1495 47.8118H24.1101C23.7893 47.7837 23.9581 47.8175 23.8118 47.8287L22.8606 47.8906H22.8212C22.7312 47.93 22.7987 47.93 22.7087 47.8906H22.6749C22.5286 47.9582 22.084 47.9469 22.0389 47.9469C21.9601 47.9469 21.9207 47.9469 21.8476 47.9469L21.6225 47.8625C21.5718 47.7668 21.6056 47.8569 21.5718 47.7893L21.538 47.5867L21.7463 47.6148C21.8645 47.643 21.8532 47.6655 21.9939 47.6655C22.1853 47.6655 22.2415 47.6092 22.2415 47.6092C22.2528 47.6036 22.2753 47.5867 22.2866 47.5811C22.2922 47.5811 22.2978 47.5698 22.3035 47.5698L22.326 47.5417L22.3372 47.5304L22.3485 47.5192L22.6862 47.0464C22.6862 47.0408 22.6918 47.0295 22.6918 47.0295L22.7199 46.9338C22.7368 46.8663 22.7199 46.9282 22.7368 46.8494L22.7706 46.5849C22.7762 46.4667 22.7706 46.2078 22.765 46.1178C22.7593 46.039 22.765 46.0559 22.7424 45.9208L22.6862 45.5268C22.6693 45.3186 22.7256 45.2567 22.6411 45.0147L22.5961 44.8458C22.5511 44.7107 22.5849 44.8346 22.5511 44.7501L22.5286 44.6488C22.5061 44.5757 22.4948 44.57 22.4892 44.5475L22.2303 43.9397C22.219 43.7709 22.2641 43.7877 22.3147 43.557C22.3372 43.4501 22.3203 43.3769 22.3372 43.2756C22.3541 43.1743 22.3879 43.1349 22.3879 43.0505L22.416 42.6903C22.4216 42.6058 22.3766 42.6846 22.416 42.5383C22.416 42.5327 22.4216 42.5214 22.4216 42.5214L22.4442 42.3582V42.3188C22.5004 42.1781 22.4385 41.9248 22.4667 41.8066L22.5342 41.5703C22.5342 41.5646 22.5398 41.559 22.5398 41.5534L22.5905 41.4464C22.8044 41.5928 22.7537 41.9473 22.765 42.0205C22.765 42.0261 22.765 42.0374 22.7706 42.043C22.8212 42.2062 22.8044 41.8967 22.8381 42.3075L23.0126 42.7634C23.0126 42.769 23.0182 42.7803 23.0182 42.7803C23.0182 42.7859 23.0295 42.8084 23.0295 42.8197L23.1364 43.1405C23.1364 43.1461 23.142 43.1574 23.142 43.1574C23.142 43.163 23.1477 43.1743 23.1477 43.1743C23.1477 43.1799 23.1533 43.1912 23.1589 43.1912C23.2152 43.2925 23.2265 43.2306 23.2152 43.3431C23.204 43.5176 23.1758 43.5345 23.1533 43.5908C23.0914 43.754 23.1927 43.6527 23.097 43.9566C23.0407 44.1817 23.1083 44.2042 23.0576 44.3337ZM44.5232 41.5703H44.4838L44.5176 41.5252L44.5232 41.5703ZM42.9699 41.8348H43.0092L42.9755 41.8798L42.9699 41.8348ZM44.0673 42.0261H44.0279L44.0617 41.9811L44.0673 42.0261ZM52.3969 42.0261H52.3575L52.3913 41.9811L52.3969 42.0261ZM43.9942 42.0993H43.9548L43.9885 42.0543L43.9942 42.0993ZM68.2626 42.2907H68.3019L68.2682 42.3357L68.2626 42.2907ZM67.8855 42.5158H67.9249L67.8911 42.5608L67.8855 42.5158ZM20.2548 42.5552H20.2942L20.5137 42.4876C20.5981 42.4651 20.9977 42.3807 21.0371 42.4539C21.0765 42.5327 21.0315 42.679 21.0315 42.831L21.0146 43.2024V43.2418C20.9583 43.3825 21.0202 43.3769 20.9752 43.5345C20.964 43.5795 20.9696 43.5063 20.9583 43.5908C20.9471 43.6695 20.9865 43.6977 20.9415 43.8102L20.7163 43.6414L20.7051 43.6301L20.418 43.208C20.1985 43.0505 20.5193 43.2137 20.3055 43.0561L20.2717 42.9323C20.2379 42.8704 20.2773 42.9435 20.2323 42.876C20.2323 42.8704 20.2267 42.8591 20.2211 42.8591C20.2154 42.8535 20.2098 42.831 20.2042 42.8253C20.2042 42.8253 20.1985 42.8141 20.1929 42.8141L20.1817 42.8028C20.1817 42.8028 20.1704 42.7916 20.1648 42.7916L20.1535 42.7803L20.1254 42.7353C20.0972 42.679 20.1366 42.7803 20.1085 42.6959C20.0804 42.6227 20.086 42.679 20.0804 42.5721C20.1423 42.5833 20.176 42.5833 20.2548 42.5552ZM41.7598 42.7409L41.7711 42.7522C41.7711 42.7522 41.7542 42.7465 41.7598 42.7409ZM45.8514 42.7409H45.8908L45.8571 42.7859L45.8514 42.7409ZM47.174 42.8929V42.9323L47.129 42.8985L47.174 42.8929ZM20.2942 43.0448V43.0842L20.2492 43.0505L20.2942 43.0448ZM69.9679 43.0448V43.0842L69.9228 43.0505L69.9679 43.0448ZM49.217 43.6527V43.6921L49.172 43.6583L49.217 43.6527ZM69.664 43.6921H69.6245L69.6583 43.647L69.664 43.6921ZM20.9358 43.8046H20.9752L20.9415 43.8496L20.9358 43.8046ZM49.4478 43.8778V43.9172L49.4028 43.8834L49.4478 43.8778ZM49.521 43.9566V43.996L49.4759 43.9622L49.521 43.9566ZM63.1522 44.1423H63.1128L63.1466 44.0973L63.1522 44.1423ZM60.991 44.2605L61.0023 44.2718C61.0023 44.2661 60.991 44.2605 60.991 44.2605ZM60.991 44.4125L61.0023 44.4237C61.0023 44.4181 60.991 44.4125 60.991 44.4125ZM52.0986 44.5588V44.5982L52.0536 44.5644L52.0986 44.5588ZM52.3969 44.8627V44.9021L52.3519 44.8683L52.3969 44.8627ZM67.5084 45.0541V45.0147L67.5534 45.0484L67.5084 45.0541ZM38.276 45.358V45.3186L38.321 45.3523L38.276 45.358ZM39.1878 46.2641V46.2247L39.2328 46.2585L39.1878 46.2641ZM63.8726 46.4161V46.3767L63.9177 46.4104L63.8726 46.4161ZM30.0252 46.4949V46.4555L30.0702 46.4892L30.0252 46.4949ZM72.2022 46.5286H72.2416L72.2079 46.5736L72.2022 46.5286ZM73.7162 46.5286H73.7556L73.7218 46.5736L73.7162 46.5286ZM30.2503 46.72V46.6806L30.2954 46.7143L30.2503 46.72ZM39.638 46.6806H39.6774L39.6436 46.7256L39.638 46.6806ZM21.4649 47.5923C21.4705 47.5867 21.4761 47.598 21.4761 47.6036L21.4649 47.5923ZM73.9807 47.7049H73.9413L73.9751 47.6599L73.9807 47.7049ZM59.4433 48.4647H59.4039L59.4377 48.4197L59.4433 48.4647ZM40.8875 48.5379H40.8537L40.8875 48.4928V48.5379ZM17.604 49.6747V49.6353L17.649 49.6691L17.604 49.6747ZM76.367 26.9203V27.0779C76.367 27.1004 76.3614 27.1285 76.3558 27.1623C76.3558 27.1736 76.3445 27.2186 76.3445 27.2299C76.2601 27.5507 76.3952 27.3368 76.2657 27.4944L75.9505 27.8433L75.9393 27.8546C75.8155 27.9784 75.8886 27.8883 75.838 28.0122C75.6579 28.1416 75.8436 28.0065 75.7648 28.136L75.4215 28.5243C75.2864 28.6425 75.2921 28.6538 75.0444 28.772H75.005C74.8531 28.8451 74.7686 28.8001 74.6167 28.8451C74.5041 28.8789 74.369 28.8226 74.2171 28.8001L73.9751 28.7607C73.9244 28.7438 73.9301 28.7551 73.8288 28.7326C73.8175 28.7776 73.8119 28.8339 73.8119 28.8395L73.6261 29.2503C73.6149 29.2729 73.598 29.3123 73.5867 29.346C73.553 29.4642 73.6093 29.2954 73.5699 29.4023C73.5136 29.5599 73.5305 29.3404 73.5305 29.5486C73.5305 29.695 73.5811 29.5486 73.5586 29.83V29.8694C73.5079 29.9876 73.5023 29.8807 73.598 30.0214C73.446 30.0833 73.553 29.9482 73.4629 30.0777C73.401 30.1621 73.4911 30.1396 73.2772 30.3141C73.0352 30.5167 73.1421 30.4942 73.1196 30.8825C73.114 30.95 73.1084 30.9388 73.0971 31.0457V31.0851C73.0183 31.2539 73.0464 31.2708 73.0408 31.344L72.6862 31.9969C72.6862 32.0025 72.6806 32.0081 72.675 32.0137L72.5962 32.1601C72.4949 32.3796 72.5343 32.2389 72.4555 32.3683C72.4555 32.3739 72.4499 32.3852 72.4442 32.3852L72.3598 32.4696C72.191 32.5766 72.2247 32.6047 72.1347 32.7398C72.0334 32.8974 71.9771 33.1112 71.7351 33.1337C71.7351 33.5615 71.7463 34.1806 71.6507 34.5914C71.6507 34.6027 71.6394 34.6533 71.6394 34.659C71.6394 34.6646 71.6338 34.6758 71.6338 34.6758L71.3693 35.1655C71.3186 35.2724 71.3636 35.1542 71.313 35.2612C71.2004 35.5088 71.2398 35.3512 71.1554 35.5088C70.9078 35.9816 71.0485 35.672 70.874 35.9028C70.8008 35.9984 70.8121 36.111 70.5701 36.2404C70.4069 36.3249 70.3562 36.4599 70.1874 36.5781L70.238 36.6626C70.238 36.6682 70.2436 36.6794 70.2436 36.6794L70.3112 36.8145C70.3112 36.8201 70.3168 36.8314 70.3168 36.8314L70.3337 36.8595C70.3393 36.8652 70.3449 36.8708 70.3506 36.8708L70.5419 37.0565L70.5532 37.0678L71.3242 37.7432C71.3749 37.7769 71.3862 37.7938 71.4312 37.8219L71.6563 37.9739C71.7126 38.0133 71.6788 37.9852 71.7295 38.0133L71.7745 38.0414C71.9771 38.1765 72.2079 38.3454 72.2079 38.5986C72.2079 38.7618 72.2923 38.7393 72.2867 38.8857L72.2135 39.2627C72.191 39.3528 72.2247 39.4034 72.191 39.5216C72.1685 39.6061 72.1516 39.6117 72.1347 39.713L72.0615 40.0394C72.0615 40.045 72.0559 40.0563 72.0559 40.0619C72.039 40.1182 72.0728 40.045 72.039 40.1295L71.9377 40.2927C71.9265 40.3096 71.8477 40.4052 71.842 40.4109L71.7013 40.6641C71.6957 40.6698 71.6901 40.681 71.6844 40.6867C71.5831 40.8105 71.6056 40.833 71.5888 40.8611L71.4087 41.1256C71.313 41.2832 71.403 41.2157 71.1948 41.4802C71.1104 41.5871 71.1723 41.5759 71.0766 41.7391L70.829 42.0993L70.6489 42.4088C70.5194 42.6396 70.4631 42.7409 70.1817 42.9323H70.1423C70.0467 42.9717 70.1255 42.9435 70.0354 42.9548C69.9904 42.9604 69.9679 42.966 69.9116 42.9717L69.951 43.0448C69.9566 43.0561 70.0016 43.0448 70.0073 43.163C70.0129 43.3206 69.7821 43.4782 69.7146 43.6076C69.6696 43.6977 69.7765 43.5964 69.6527 43.6864C69.4613 43.9735 69.6471 43.7596 69.4557 43.9791C69.3769 44.0691 69.36 44.1592 69.3263 44.2267L69.028 44.6826C68.9886 44.7839 68.9436 44.7839 68.8535 44.8965L68.786 44.9921C68.7803 44.9978 68.7635 45.009 68.7578 45.0147L68.7466 45.0259C68.7466 45.0259 68.7409 45.0372 68.7353 45.0428C68.6903 45.1103 68.7916 45.0372 68.679 45.1329L68.3639 45.3692L67.9249 45.313C67.8967 45.3017 67.8798 45.2961 67.8404 45.2792L67.4971 45.0541L67.3846 44.9809L66.9962 44.4012C66.9962 44.3956 66.9906 44.3843 66.9906 44.3843C66.9287 44.2155 66.9062 44.2436 66.9118 44.0072L67.0694 43.4951C67.0694 43.4894 67.075 43.4782 67.075 43.4782C67.1088 43.405 67.0863 43.4613 67.1088 43.4219L67.3508 43.0223C67.514 42.7015 67.4071 42.9491 67.5365 42.7465C67.5816 42.7128 67.6097 42.6846 67.6435 42.6677C67.7898 42.589 67.5872 42.7071 67.7166 42.6452C67.7785 42.6171 67.8067 42.5664 67.8798 42.5214L67.9924 42.4482C68.0993 42.392 68.1556 42.3638 68.2569 42.2963C68.2626 42.2907 68.2794 42.285 68.2794 42.2794L68.4089 42.1612L68.4201 42.15L68.4595 42.1106C68.6734 41.8967 68.6678 41.8179 68.7578 41.6941C68.786 41.6547 68.8479 41.604 68.8929 41.559C68.9379 41.514 68.9717 41.469 69.0223 41.4408L69.163 41.3789H69.2024C69.2531 41.3564 69.4388 41.2832 69.4726 41.2495C69.5514 41.165 69.4219 41.2945 69.5176 41.165L69.6977 40.9287C69.7315 40.8724 69.7484 40.8667 69.7765 40.8217L69.8047 40.7542C69.8047 40.7486 69.8103 40.7429 69.8159 40.7373L69.8666 40.681C70.0241 40.4897 69.9003 40.6416 69.9566 40.5234L70.3112 39.9663C70.3112 39.9663 70.3168 39.955 70.3224 39.955C70.3337 39.9381 70.2887 39.9437 70.39 39.8762L70.5419 39.7242C70.6995 39.4879 70.5926 39.561 70.6601 39.3866C70.6883 39.3134 70.7783 39.1614 70.6883 39.0995C70.6714 39.0883 70.587 39.1108 70.5025 39.077H70.4631H70.4237H70.3843C70.2943 39.0376 70.3618 39.0376 70.2718 39.077H70.2324C70.1423 39.0376 70.2099 39.0376 70.1198 39.077H70.0804C69.9904 39.0376 70.0579 39.0376 69.9679 39.077H69.9285C69.8384 39.0376 69.906 39.0376 69.8159 39.077H69.7765C69.6865 39.0376 69.754 39.0376 69.664 39.077H69.6245C69.5345 39.0376 69.602 39.0376 69.512 39.077H69.4726C69.3825 39.0376 69.4501 39.0376 69.36 39.077H69.3206C69.2137 39.032 68.1275 39.077 67.8911 39.0151L67.5984 38.9757C67.0244 38.9138 66.833 39.0545 66.7036 39.0038L66.591 38.8519C66.5516 38.8237 66.5235 38.8125 66.4841 38.7675C66.4109 38.6718 66.5347 38.7675 66.3603 38.5536L66.3096 38.4298C66.2983 38.351 66.3377 38.4354 66.2815 38.3679L66.1633 38.2666C66.1633 38.2553 66.1464 38.2553 66.1408 38.2497C66.0507 38.2103 66.1182 38.2103 66.0282 38.2497C65.9775 38.3735 66.0338 38.3679 65.9832 38.5592C65.8819 38.9025 65.9832 39.0038 65.9156 39.1558V39.1952C65.9156 39.3753 65.9156 39.2684 65.8762 39.3078C65.9269 39.4203 65.9325 39.4541 65.9325 39.5273C65.9381 39.713 66.0113 39.5835 66.0113 39.7693C66.0113 39.8649 66.0057 39.7299 66.0113 39.8424C66.0169 39.9494 66.0451 40.2533 65.9832 40.3546C65.8537 40.5628 66.0001 40.4728 65.9213 40.6641V40.7035C65.9213 40.8836 65.9213 40.7767 65.8819 40.8161C65.9438 40.9737 65.8987 40.8161 65.8819 40.9174L65.865 41.2213C65.8706 41.5252 65.713 41.5759 65.713 42.0149C65.713 42.088 65.713 42.1106 65.713 42.1837L65.7412 42.3582C65.8425 42.589 65.7355 42.4314 65.8425 42.7859C65.9269 43.0673 65.7862 43.5176 65.9213 43.8384V43.8778C65.9775 44.0129 65.9156 43.9453 65.955 44.0748L66.0845 44.4519C66.0845 44.4631 66.0901 44.4856 66.0901 44.4912L66.1745 44.6601C66.2758 44.8796 66.2815 44.722 66.4841 45.2116C66.4897 45.2229 66.501 45.2454 66.5066 45.2567C66.5854 45.4424 66.4841 45.3805 66.6023 45.4649C66.6585 45.6056 66.5854 45.4762 66.6417 45.6169L66.7767 46.0784C66.7936 46.1515 66.7711 46.0446 66.7992 46.1347C66.8161 46.1853 66.8049 46.1065 66.8161 46.1909L66.8049 46.4161C66.7373 46.7425 66.9343 46.5905 67.1369 46.6749H67.1763H67.2157H67.2551H67.2945H67.3339H67.3733H67.4127H67.4521H67.4915H67.5309H67.5703C67.6603 46.6356 67.5928 46.6356 67.6829 46.6749H67.7223L68.1838 46.6468C68.7072 46.6074 69.7202 46.6187 70.283 46.5849C70.3393 46.5793 70.4744 46.5624 70.5982 46.5624L71.6225 46.523H71.6619H71.7013H71.7407H71.7801H71.8195C71.9096 46.4836 71.842 46.4836 71.9321 46.523H71.9715C72.0615 46.4836 71.994 46.4836 72.084 46.523H72.1234C72.2135 46.4836 72.1459 46.4836 72.236 46.523C72.2416 46.5174 72.2529 46.5117 72.2585 46.5117L72.3317 46.4949C72.3373 46.4949 72.3486 46.4949 72.3542 46.4949H73.4123C73.5305 46.4949 73.6712 46.4892 73.7443 46.5174C73.8175 46.4723 73.9863 46.4949 74.0482 46.5174H74.0876C74.1608 46.4667 74.1664 46.4442 74.2283 46.4217C74.2283 46.4217 74.3747 46.4048 74.3916 46.4048C74.5773 46.3935 74.673 46.4329 74.808 46.3654C74.9431 46.4498 75.3202 46.371 75.489 46.4386H75.5284C75.6579 46.4949 75.5622 46.4104 75.7198 46.5117H75.7592C75.883 46.5962 75.8098 46.613 75.9843 46.6243C75.8492 46.8213 75.9055 46.6862 75.7142 46.8438C75.6579 46.8888 75.6635 46.8888 75.6072 46.9282H75.5678C75.5116 46.9564 75.4665 46.9676 75.4102 46.9958C75.4046 47.0014 75.3427 47.0352 75.3371 47.0352L75.2695 47.0802H75.2301H75.1908C75.0838 47.1308 75.0332 47.1027 74.9262 47.1533H74.8868C74.7349 47.0914 74.8925 47.1252 74.763 47.1646C74.4141 47.2603 74.7236 47.1421 74.3297 47.4291C74.324 47.4291 74.3184 47.4404 74.3128 47.4404L74.2002 47.5361L74.0089 47.688C74.0032 47.6936 73.992 47.6993 73.9863 47.7049C73.9807 47.7105 73.9695 47.7161 73.9638 47.7161C73.9582 47.7218 73.9469 47.7274 73.9413 47.7274C73.7837 47.8231 73.8288 47.8343 73.7106 47.9131H73.6712C73.5079 48.0201 73.5699 48.0088 73.356 48.0876L73.2547 48.1439H73.2153L73.1027 48.2171H73.0633C72.8776 48.3071 72.8495 48.2621 72.7932 48.2733C72.6243 48.3127 72.7144 48.3521 72.3542 48.3465C72.1572 48.3409 72.2529 48.3803 72.1291 48.3859C72.0671 48.3915 71.8139 48.369 71.6676 48.4422H71.6282C71.5381 48.4028 71.6057 48.4028 71.5156 48.4422H71.4762C71.3355 48.3859 71.4537 48.4478 71.2736 48.4703C71.1498 48.4872 71.0372 48.4759 70.9078 48.4816C70.8346 48.4816 70.8008 48.4872 70.7333 48.4928L70.4519 48.521H70.4125C70.3224 48.5604 70.39 48.5604 70.2999 48.521H70.2605C70.1705 48.5604 70.238 48.5604 70.148 48.521H70.1086C69.9848 48.5716 70.0748 48.5322 70.0242 48.5266L69.8947 48.5322C69.8891 48.5322 69.8778 48.5266 69.8778 48.5266L67.1876 48.4366C67.1257 48.4253 67.1932 48.414 67.12 48.4478H67.0807C66.8105 48.3184 63.9739 48.4478 63.7882 48.3746H63.7488C63.6588 48.414 63.7263 48.414 63.6363 48.3746H63.5969C63.5068 48.414 63.5743 48.414 63.4843 48.3746H63.4449C63.3548 48.414 63.4224 48.414 63.3323 48.3746H63.2929C63.2029 48.414 63.2704 48.414 63.1804 48.3746H63.141H63.1016H63.0622C62.9721 48.3352 63.0397 48.3352 62.9496 48.3746H62.9102C62.8202 48.3352 62.8877 48.3352 62.7977 48.3746H62.7583C62.6682 48.3352 62.7358 48.3352 62.6457 48.3746H62.6063C62.5219 48.3409 62.2743 48.3409 62.1898 48.3746H62.1504C62.0604 48.3352 62.1279 48.3352 62.0379 48.3746H61.9985C61.824 48.3015 61.9872 48.4478 61.8071 48.3746H61.7677C61.6777 48.414 61.7452 48.414 61.6552 48.3746H61.6158H60.2932H60.2538C60.1637 48.414 60.2313 48.414 60.1412 48.3746H60.1018H60.0455H60.0061C59.9161 48.3352 59.9836 48.3352 59.8936 48.3746H59.8542H59.8204H59.781C59.6909 48.414 59.7585 48.414 59.6684 48.3746H59.629C59.4996 48.4309 59.5953 48.3465 59.4377 48.4478L59.342 48.5041C59.297 48.5379 59.3139 48.5266 59.2857 48.566L59.2126 48.5266H59.1732C59.0268 48.5885 59.1675 48.5547 59.0719 48.5266L59.0381 48.5097C58.9143 48.4759 58.8524 48.5097 58.7173 48.4591C58.5147 48.3859 58.4246 48.4253 58.3121 48.3746H58.2727H58.2333H58.1939C58.0475 48.3071 57.8956 48.3296 57.828 48.3127C57.6873 48.2733 56.9951 48.2508 56.8431 48.2902C56.6912 48.3296 56.7812 48.2902 56.6912 48.2902C56.6236 48.2958 56.6743 48.3409 56.5674 48.2958H56.528C56.4379 48.3352 56.5054 48.3352 56.4154 48.2958H56.376C56.2972 48.3296 56.1903 48.3296 56.1115 48.2958H56.0721L55.5768 48.3296C55.301 48.3521 54.0966 48.3296 53.9897 48.369H53.9503C53.8602 48.3296 53.9278 48.3296 53.8377 48.369H53.7983C53.7083 48.3296 53.7758 48.3296 53.6858 48.369H53.6464H53.607H53.5732C53.4888 48.4028 53.2411 48.4028 53.1567 48.369H53.1173H53.0779H53.0385H52.9991H52.9597H52.9203H52.8809L51.1419 48.3296C50.9224 48.3184 49.8474 48.3352 49.7405 48.2902H49.7011C49.611 48.3296 49.6786 48.3296 49.5885 48.2902H49.5491C49.3577 48.369 49.6335 48.2846 49.3521 48.2958L49.3127 48.2902C49.3071 48.2902 49.2958 48.2846 49.2958 48.2846C49.2902 48.2846 49.279 48.279 49.279 48.279L46.6169 48.2339C46.493 48.2396 46.3917 48.2283 46.3411 48.2339L43.527 48.2733C43.5214 48.2733 43.5101 48.279 43.5045 48.279L43.4482 48.2958C43.4426 48.2958 43.4314 48.2958 43.4314 48.2958L43.3582 48.279C43.3526 48.279 43.3413 48.2846 43.3413 48.2846C42.998 48.3465 42.9023 48.3071 42.5646 48.3352C42.3958 48.3465 41.9399 48.3746 41.7992 48.4422H41.7598C41.6866 48.414 41.7148 48.4478 41.5234 48.4647L41.0394 48.521H41C40.91 48.5604 40.9775 48.5604 40.8875 48.521C40.8481 48.5491 40.8818 48.5379 40.8087 48.5547C40.758 48.566 40.7974 48.5547 40.7411 48.5604C40.6117 48.5773 40.6961 48.5435 40.5892 48.5941H40.5498H40.5104H40.471L39.3735 48.7461H39.3341H39.2947H39.2553L37.9327 48.9712H37.8933H37.8539H37.8145C37.7245 49.0106 37.6907 48.9768 37.55 49.0444H37.5106C37.3586 48.9825 37.5106 49.0162 37.3868 49.0556C37.3474 49.0669 37.3361 49.0725 37.2742 49.0782C37.1223 49.095 37.0547 49.1119 36.9422 49.1232H36.914C36.8071 49.1738 36.7564 49.1457 36.6495 49.1963H36.6101H36.5707H36.5313L35.7377 49.3483H35.6983H35.6589H35.6195C35.5182 49.3877 35.3381 49.3596 35.2031 49.4215H35.1693H35.1299H35.0905C35.023 49.4496 34.8654 49.4552 34.7584 49.4777L34.0774 49.5959C33.9761 49.6185 33.993 49.6128 33.9199 49.6466H33.8805C33.7285 49.5847 33.8805 49.6185 33.7566 49.6578L32.9406 49.7817C32.828 49.8042 32.9124 49.8548 32.783 49.8042H32.7492L31.0439 50.1081H31.0045C30.9145 50.1475 30.9426 50.125 30.8638 50.125C30.8131 50.125 30.7963 50.1306 30.7006 50.1475C30.5599 50.17 30.5205 50.1475 30.4304 50.1813H30.391C30.2897 50.2488 30.3404 50.2375 30.2503 50.2375C30.1603 50.2432 30.2335 50.2094 30.1265 50.2544H30.0871H30.0477H30.0083L29.5468 50.3107C29.4849 50.3163 29.4174 50.3051 29.3555 50.3163L28.2298 50.4852H28.1905H28.1511H28.1117C28.0329 50.5189 27.9541 50.5133 27.7796 50.5302C27.6783 50.5415 27.622 50.5302 27.5432 50.5583H27.5038C27.3294 50.5752 27.3012 50.5809 27.0648 50.609L26.7834 50.6371H26.744C26.6371 50.6878 26.5864 50.6596 26.4795 50.7103H26.4401C26.4289 50.7047 26.4007 50.699 26.3951 50.699C26.3895 50.699 26.3782 50.699 26.3726 50.699L26.3332 50.7103C26.2262 50.7384 26.0574 50.7216 25.7816 50.7722C25.5846 50.8116 25.5959 50.7947 25.4721 50.806C25.292 50.8285 25.185 50.8229 25.1119 50.8566H25.0725H25.0331H24.9937L24.6053 50.9298C24.3408 51.0142 24.3239 50.9748 24.2283 51.003C24.02 51.0705 23.0239 51.0705 22.8381 51.1605H22.7987C22.6468 51.0986 22.8044 51.138 22.6749 51.1718C22.6299 51.1831 22.4385 51.1943 22.2247 51.1999H21.8926C21.6956 51.1943 21.5211 51.1831 21.4705 51.1605H21.4311L21.3185 51.0874H21.2791L20.9921 50.9579C20.5644 50.7441 20.3955 50.761 20.2154 50.6371H20.176H20.1366L19.647 50.4852H19.6076L18.4313 50.1081C18.4257 50.1025 18.4144 50.0968 18.4088 50.0912C18.4032 50.0856 18.3919 50.08 18.3863 50.0743L18.2906 50.018C18.2287 49.9899 18.1837 49.9786 18.133 49.9505C17.9529 49.8267 17.9811 49.8999 17.8291 49.7985L17.5646 49.6466H17.5252L17.452 49.5734C17.2719 49.4496 17.3001 49.5228 17.1481 49.4215L16.9286 49.3033C16.7373 49.2076 16.5628 49.1175 16.4502 48.8812C16.439 48.8587 16.4502 48.8699 16.4221 48.8249C16.4165 48.8193 16.3939 48.7911 16.3883 48.7855L16.1069 48.2677C16.0788 48.127 16.09 48.2058 16.1294 48.172L16.2814 48.2114L16.529 47.9976C16.6641 47.9244 16.6922 47.9976 16.8161 47.9469H16.8554C16.9455 47.9075 16.878 47.9075 16.968 47.9469H17.0074C17.0862 47.9131 17.1931 47.9131 17.2719 47.9469H17.3113C17.4014 47.9075 17.3338 47.9075 17.4239 47.9469H17.4633C17.5533 47.9075 17.4858 47.9075 17.5758 47.9469H17.6152C17.7053 47.9075 17.6378 47.9075 17.7278 47.9469H17.7672C17.8573 47.9863 17.7897 47.9863 17.8798 47.9469H17.9192H18.0317H18.0711C18.1612 47.9863 18.0936 47.9863 18.1837 47.9469H18.2231C18.3188 47.9863 18.8253 47.9638 18.9604 47.975C19.1292 47.9863 19.6751 47.9807 19.7764 48.0257H19.8158C19.8946 47.9919 20.0016 47.9919 20.0804 48.0257H20.1198C20.2379 47.9413 20.1591 48.0707 20.1873 47.7893C20.2379 47.2828 20.2098 47.0971 20.0353 46.7256L19.7539 46.1572C19.6639 45.994 19.7933 46.1065 19.6639 46.0165L19.5795 45.8195C19.5795 45.8139 19.5738 45.8026 19.5738 45.8026C19.5738 45.797 19.5682 45.7857 19.5682 45.7857L19.3431 45.2961C19.3374 45.2567 19.3487 45.2285 19.3431 45.2004C19.3374 45.1497 19.3431 45.1835 19.3093 45.1272C19.2474 45.0203 19.298 44.9921 19.2418 44.8908C19.1573 44.7389 19.1742 44.6263 19.1123 44.4237L18.4482 43.315L18.4369 43.3037L18.3975 43.2643L18.3863 43.2531L18.375 43.2418L17.7728 42.6565C17.694 42.5552 17.5646 42.4314 17.5252 42.3244L17.4183 42.1725C17.3113 42.0599 17.2607 41.9136 17.1875 41.7954L16.9905 41.2663C16.968 41.1763 17.0074 41.272 16.9455 41.1707L16.7429 40.8048V40.7654C16.636 40.6079 16.726 40.7035 16.6472 40.5178C16.5966 40.394 16.6134 40.5178 16.6078 40.394C16.5966 40.1857 16.5515 40.349 16.529 40.1857C16.4953 39.9156 16.5234 40.1295 16.4615 39.9944C16.4277 39.9212 16.4784 39.9888 16.4333 39.8875C16.4052 39.8481 16.4165 39.8875 16.3827 39.7918C16.332 39.6342 16.4052 39.8255 16.3658 39.7074C16.332 39.6061 16.3658 39.7186 16.3208 39.6173L16.2195 39.3472C16.1519 39.0432 16.0225 38.8575 15.9943 38.6662C15.9831 38.6042 15.9606 38.5817 15.9381 38.4861C15.8086 38.5423 15.7636 38.4692 15.6341 38.5255H15.5948C15.4315 38.4579 15.2571 38.5817 14.7731 38.4073C14.7674 38.4073 14.7562 38.4016 14.7562 38.4016C14.6886 38.3791 14.7449 38.4129 14.6661 38.3566C14.6098 38.3116 14.6155 38.3172 14.5648 38.2666C14.5254 38.2328 14.5085 38.2159 14.486 38.1709C14.4129 38.0189 14.3509 37.6981 14.4354 37.4392C14.486 37.2816 14.4804 37.3042 14.4804 37.2085C14.4748 36.7639 14.486 37.0396 14.5479 36.7976L14.5536 36.2236C14.5536 36.066 14.5423 36.0885 14.4973 36.0266C14.4916 35.9478 14.486 35.9084 14.4804 35.8802C14.4748 35.8409 14.4804 35.8465 14.4579 35.7958C14.3397 35.7114 14.441 35.7958 14.3903 35.6945C14.3903 35.6889 14.3847 35.6776 14.3791 35.6776L14.2609 35.233C14.199 34.8728 14.3115 34.9685 14.1877 34.4732C14.154 34.3381 14.1934 34.3832 14.154 34.2819V34.2425C14.1202 34.1918 14.1314 34.2143 14.1146 34.1749L14.0864 34.0793C14.0864 34.0736 14.0808 34.0624 14.0808 34.0624L14.0695 34.023C14.0695 34.0173 14.0639 34.0061 14.0639 34.0061L14.0076 33.826C13.9964 33.8316 13.9288 33.8598 13.9288 33.8598C13.8444 33.8992 13.8951 33.8766 13.8557 33.9048C13.6531 34.0005 13.4279 34.0793 13.1916 34.0005L12.9833 33.9048L12.8595 33.7978C12.5387 33.5333 12.9383 33.7866 12.685 33.6009L12.6062 33.4208C12.5049 33.2407 12.5106 33.0493 12.5049 33.0437C12.4655 32.9424 12.443 33.0381 12.4318 32.8917C12.4261 32.796 12.4655 32.8129 12.3586 32.7116C12.2854 32.6385 12.2517 32.6272 12.1729 32.554L11.8408 32.3177C11.8352 32.312 11.8183 32.3064 11.8183 32.3008C11.6663 32.1938 11.6832 32.1376 11.6157 32.0869C11.5481 31.9181 11.6269 31.7774 11.6269 31.7155C11.6269 31.6929 11.5707 31.6141 11.672 31.496C11.762 31.389 11.6832 31.5691 11.7451 31.4003C11.7733 31.3271 11.6495 31.3159 11.9871 31.1977L12.0828 31.1695C12.1616 31.1414 12.2854 31.0851 12.443 31.1301L12.6569 31.2033C12.6625 31.1977 12.6738 31.2146 12.6794 31.2202C12.7244 31.2427 12.7413 31.2427 12.7863 31.2652C12.8482 31.2933 12.8145 31.2821 12.8876 31.3159C13.2703 31.5072 13.2647 31.4622 13.3998 31.5241H13.4392C13.5405 31.5747 13.6137 31.5747 13.6587 31.586C13.7375 31.6141 13.6699 31.5916 13.7487 31.6254C13.7994 31.6479 13.8106 31.6479 13.8557 31.6704H13.8951C13.9513 31.6929 13.9176 31.6817 13.957 31.6873C13.9626 31.6873 14.0133 31.6986 14.0245 31.6986C14.1202 31.6986 14.092 31.7042 14.1596 31.6704H14.199C14.3791 31.5747 14.4241 31.5804 14.5423 31.4059C14.4916 31.3721 14.4804 31.3553 14.4354 31.3271C14.3903 31.2933 14.4129 31.3159 14.3622 31.2877C14.3566 31.2821 14.3397 31.2821 14.3397 31.2708C14.3341 31.2596 14.3228 31.2596 14.3172 31.2539L14.2046 31.1808C13.9739 31.0176 14.0864 31.0007 13.9007 30.8769C13.8613 30.7756 13.9007 30.8544 13.8726 30.7756C13.8163 30.6236 13.8388 30.8262 13.8275 30.6461C13.8163 30.4604 13.8275 30.6123 13.8782 30.466C13.8782 30.4604 13.8782 30.4491 13.8838 30.4491C13.9345 30.3141 14.0076 30.3253 14.1371 30.376L14.3172 30.4604H14.3566L14.8631 30.5617C15.1726 30.5955 15.2289 30.5842 15.4147 30.3084C15.516 30.2409 15.4709 30.2521 15.5554 30.2465C15.6004 30.2465 15.6342 30.2465 15.6679 30.2521C15.8311 30.269 15.9268 30.2915 16.0563 30.2296H16.0957C16.1857 30.1902 16.3039 30.2184 16.439 30.1565H16.4784C16.5684 30.1959 16.5009 30.1959 16.5909 30.1565H16.6303L16.7541 30.1902C17.0018 30.269 16.9793 30.3028 17.0975 30.3591L17.2269 30.4041C17.2944 30.421 17.5252 30.4041 17.5308 30.4041C17.5871 30.3816 17.7222 30.2184 17.8066 30.1621L17.8966 30.0889C17.9079 30.0777 17.7897 30.0664 18.0036 30.0439L17.9642 29.9707L17.2944 29.9595C17.1706 29.9933 17.317 30.0326 17.1706 29.9707H17.1312C17.0187 30.0158 16.0563 30.0045 15.955 30.0439H15.9156C15.8255 30.0045 15.893 30.0045 15.803 30.0439H15.7636H15.7242H15.6848C15.5779 30.0889 14.835 30.0777 14.6943 30.1171L13.3773 30.1959H13.3379C13.2478 30.1565 13.3154 30.1565 13.2253 30.1959H13.1859C13.0959 30.1565 13.1634 30.1565 13.0734 30.1959H13.034L11.6044 30.1283C11.4975 30.1114 11.6213 30.1002 11.475 30.1002L10.4225 30.0439H10.3831C10.2087 30.1171 10.3719 29.9707 10.1918 30.0439H10.1805C10.0848 30.0045 10.006 30.027 9.90474 30.027L8.85228 29.9707H8.81289C8.72284 29.9313 8.66656 29.9482 8.57651 29.9539L8.07561 29.8694C7.92365 29.8469 7.85611 29.8469 7.78857 29.8188H7.76043H7.72104H7.68164L7.2933 29.7456C7.04003 29.6612 6.9331 29.7118 6.76426 29.6668C6.66295 29.6387 6.80928 29.6049 6.65732 29.6668C6.62355 29.6443 6.65732 29.6612 6.58416 29.6218C6.5729 29.6162 6.52788 29.5993 6.50536 29.588H6.46597H6.42657H6.38717C6.31401 29.5543 6.33089 29.5599 6.22959 29.5374L5.90316 29.4473H5.86376C5.79622 29.4136 5.73994 29.4023 5.67241 29.3742H5.63301C5.58236 29.3516 5.57673 29.3516 5.52607 29.3291C5.44728 29.2954 5.51482 29.3123 5.43602 29.2897C5.39663 29.2785 5.36286 29.301 5.27281 29.2503L4.95201 29.0027C4.87321 28.9633 4.91824 28.9746 4.80005 28.9633C4.87321 28.7776 4.74377 28.5919 4.88447 28.3048L5.28969 27.8996C5.41351 27.8152 5.40788 27.8433 5.54859 27.7814C5.61612 27.7533 5.60487 27.7476 5.67241 27.7195C5.71743 27.697 5.73431 27.697 5.77934 27.6745H5.81874C5.88627 27.6407 5.94255 27.6294 6.01009 27.6013C6.03823 27.5788 6.02698 27.5788 6.08326 27.5563C6.09451 27.5507 6.12265 27.545 6.12828 27.545C6.22959 27.5225 6.08326 27.5844 6.23522 27.5225H6.27461C6.34215 27.4887 6.39843 27.4775 6.46597 27.4494H6.50536C6.57853 27.4156 6.92184 27.3706 7.0738 27.2974H7.1132L7.8336 27.1454H7.87299C8.07561 27.0498 8.08686 27.1229 8.21631 27.0723H8.2557L8.45832 27.0104C8.46394 26.9991 8.4752 26.9991 8.48083 26.9935C8.63279 27.0554 8.48083 27.0216 8.60465 26.9822C8.64967 26.971 8.64967 26.971 8.73972 26.9484C8.86354 26.9203 8.8748 26.9541 8.97047 26.9147H9.00987C9.06052 26.8922 9.0549 26.9034 9.09429 26.8922C9.12806 26.8865 9.12243 26.8865 9.18997 26.8697C9.29128 26.8471 9.26314 26.8697 9.34756 26.8359H9.38695L10.552 26.7064C10.6645 26.6952 10.749 26.7346 10.8615 26.6839H10.9009H10.9403H10.9797H11.0191H11.0585C11.1542 26.6445 11.0866 26.6727 11.1879 26.6558C11.233 26.6502 11.3005 26.6389 11.3399 26.6333C11.4468 26.6164 11.4525 26.6502 11.5481 26.6108H11.5875C11.6776 26.6502 11.6101 26.6502 11.7001 26.6108H11.7395L12.685 26.5376H12.7244C12.8088 26.5038 12.9045 26.5095 13.1015 26.4982C13.2028 26.4926 13.1747 26.4869 13.2478 26.4813C13.3435 26.4757 13.2647 26.5038 13.3717 26.4644H13.411C13.5011 26.425 13.4336 26.425 13.5236 26.4644H13.563C13.6587 26.425 13.7487 26.4532 13.8726 26.4363C13.9682 26.4194 14.0189 26.4138 14.0639 26.4082C14.1427 26.4025 14.1146 26.425 14.2046 26.3913H14.244L14.6605 26.3519C14.7787 26.3462 14.8687 26.3575 14.9869 26.3406C15.0432 26.335 15.0376 26.335 15.0995 26.3237C15.1164 26.3181 15.2008 26.2956 15.2008 26.2956C15.2514 26.2843 15.319 26.29 15.3753 26.2956C15.4766 26.2956 15.4484 26.29 15.5722 26.2787L16.0281 26.2393H16.0675C16.1576 26.1999 16.09 26.1999 16.1801 26.2393H16.2195C16.3545 26.183 16.7823 26.1943 16.8723 26.183L17.5364 26.1099C17.649 26.0986 17.7334 26.138 17.846 26.0873H17.8854C17.9754 26.048 17.9079 26.048 17.998 26.0873H18.0374C18.0936 26.0648 18.3356 26.0311 18.4088 26.0311C18.5101 26.0311 18.5776 26.0536 18.679 26.0142H18.7184L19.8158 25.941H19.8552C19.9622 25.986 20.0128 25.941 20.2773 25.9241C21.1553 25.8791 22.4836 25.8566 23.4516 25.941C23.491 26.0029 23.4516 26.0029 23.491 25.941C23.5979 25.986 25.7591 26.0423 26.0574 25.9523C26.063 25.9523 26.0687 25.9466 26.0743 25.9466L26.1081 25.9298C26.1137 25.9298 26.1249 25.9241 26.1249 25.9241C26.305 25.8791 26.7609 25.9016 26.8566 25.8622H26.896C26.986 25.9016 26.9185 25.9016 27.0085 25.8622H27.0479C27.183 25.8059 27.5095 25.8735 27.6896 25.7891H27.7289C27.819 25.8285 27.7515 25.8285 27.8415 25.7891H27.8809C27.971 25.7497 27.9034 25.7497 27.9935 25.7891H28.0329L29.6538 25.6596C29.7382 25.654 29.7213 25.6765 29.8113 25.6371H29.8507H29.8901H29.9295H29.9689H30.0083C30.0984 25.5977 30.0308 25.5977 30.1209 25.6371H30.1603C30.4136 25.5133 30.6612 25.6202 30.8019 25.5639H30.8413C30.9932 25.6258 30.8357 25.5864 30.9651 25.5527L31.5842 25.5133C31.6799 25.502 31.7024 25.5245 31.7868 25.4851C31.815 25.4626 31.8037 25.4626 31.86 25.4401C31.8712 25.4345 31.8994 25.4289 31.905 25.4289C32.0063 25.4063 31.86 25.4683 32.0119 25.4063H32.0513C32.1414 25.4457 32.0738 25.4457 32.1639 25.4063H32.2033C32.2933 25.367 32.2258 25.367 32.3159 25.4063H32.3552C32.4453 25.367 32.3778 25.367 32.4678 25.4063H32.5072C32.5973 25.367 32.5297 25.367 32.6198 25.4063H32.6592C32.7492 25.367 32.6817 25.367 32.7717 25.4063H32.8111C32.9012 25.367 32.8336 25.367 32.9237 25.4063H32.9631C33.0531 25.367 32.9856 25.367 33.0756 25.4063H33.115C33.2051 25.367 33.1376 25.367 33.2276 25.4063H33.267C33.3571 25.367 33.2895 25.367 33.3796 25.4063H33.419C33.509 25.367 33.4415 25.367 33.5315 25.4063H33.5709L34.6684 25.3332H34.7078C34.7978 25.3726 34.7303 25.3726 34.8204 25.3332H34.8598C35.0117 25.3219 34.9892 25.3163 35.0793 25.3163C35.5239 25.3163 35.901 25.2994 36.3399 25.3332H36.3793H36.4919H36.5313C36.6214 25.3726 36.5538 25.3726 36.6439 25.3332H36.6833C36.7733 25.3726 36.7058 25.3726 36.7958 25.3332H36.8352C36.9253 25.3726 36.8577 25.3726 36.9478 25.3332H36.9872L37.5556 25.2938C37.6457 25.2882 37.747 25.2769 37.7751 25.2769C37.9327 25.26 38.321 25.2488 38.4617 25.1812H38.5011H38.5405H38.5799C38.625 25.1643 38.8219 25.1306 38.912 25.1249L39.7168 24.8773C39.8406 24.8661 39.8969 24.8379 39.987 24.8041L40.2008 24.7535C40.2121 24.7479 40.2177 24.7479 40.229 24.7422C40.2402 24.7366 40.2458 24.731 40.2571 24.731L40.7411 24.5734L41.197 24.4214H41.2364C41.3039 24.3877 41.3602 24.3764 41.4278 24.3483H41.4671C41.6191 24.2864 41.4728 24.3483 41.5741 24.3258C41.5797 24.3258 41.636 24.3032 41.6472 24.3032C41.6529 24.3032 41.6698 24.2976 41.6698 24.2864C41.6754 24.2751 41.6866 24.2751 41.6923 24.2695C41.788 24.2638 41.968 24.2244 42.0356 24.1963H42.075C42.1425 24.1625 42.1988 24.1513 42.2663 24.1231H42.3057L43.0261 23.9712C43.1162 23.9149 43.3863 23.8811 43.4708 23.8755C43.6115 23.8586 43.6509 23.8361 43.7634 23.808L44.754 23.7235C44.8328 23.7235 44.8834 23.7348 44.9566 23.7123C45.3674 23.5716 45.2323 23.656 45.677 23.5772C45.7333 23.566 45.8008 23.5716 45.8683 23.5716C45.9527 23.5716 45.9527 23.5716 46.116 23.5434C46.2567 23.5209 46.3917 23.5603 46.5043 23.5153H46.5437C46.6337 23.5547 46.5662 23.5547 46.6563 23.5153H46.6957C46.7857 23.5547 46.7182 23.5547 46.8082 23.5153H46.8476H46.887H46.9264H46.9658H47.0052L48.4798 23.3633H48.5192C48.6092 23.3239 48.5417 23.3239 48.6317 23.3633H48.6711C48.7612 23.3239 48.6936 23.3239 48.7837 23.3633C48.9525 23.2564 49.172 23.3465 49.3127 23.2902H49.3521C49.4985 23.2283 49.6054 23.3296 49.8418 23.217H49.8812C49.9712 23.2564 49.9037 23.2564 49.9937 23.217H50.0331C50.1682 23.2058 50.1457 23.2001 50.2301 23.2001C50.292 23.2001 50.292 23.1889 50.4102 23.1832C50.6578 23.1664 50.641 23.1607 50.8267 23.1439H50.8661C50.9561 23.1045 51.0743 23.1326 51.2094 23.0707H51.2488H51.2882H51.3276H51.367H51.4064C51.5021 23.0313 51.4345 23.0594 51.5358 23.0425L52.4251 22.9187H52.4645C52.5545 22.8793 52.6727 22.9075 52.8078 22.8456H52.8472C52.9147 22.8174 53.2186 22.778 53.3368 22.7724C53.3762 22.7499 53.3481 22.7555 53.4156 22.7386L53.6295 22.6936C53.7758 22.643 53.7927 22.6936 53.9447 22.6204H53.9841L54.4005 22.4685H54.4399C54.4793 22.4516 54.5356 22.4347 54.575 22.4122C54.6819 22.3503 54.5806 22.3784 54.6763 22.339C54.7438 22.3109 54.7438 22.3615 54.8564 22.3165L54.9071 22.294C54.9127 22.294 54.9296 22.2884 54.9352 22.2828L55.0815 22.2434H55.1209C55.2279 22.1983 55.1885 22.2546 55.3292 22.1871C55.3967 22.1533 55.3629 22.1646 55.4305 22.1364C55.4699 22.1195 55.498 22.1139 55.5374 22.0914H55.5768C55.6275 22.0689 55.6556 22.0633 55.7119 22.0351C55.7625 22.0126 55.7794 22.0013 55.8357 21.9732L56.0665 21.8663L56.6855 21.5792C56.6912 21.568 56.7024 21.568 56.7081 21.5624C56.7756 21.5286 56.8319 21.5173 56.8994 21.4892H56.9388L57.2709 21.3316C57.2765 21.3316 57.2878 21.326 57.2934 21.3203L57.5016 21.1853H57.541L57.9913 20.9883C57.9969 20.9883 58.025 20.9658 58.0363 20.9601C58.0982 20.9208 57.9969 20.9658 58.1095 20.9208C58.1207 20.9151 58.1826 20.8982 58.1939 20.8926C58.2952 20.8532 58.2614 20.8645 58.3402 20.8138H58.3796C58.4246 20.7913 58.4471 20.7913 58.4865 20.7688C58.5541 20.735 58.509 20.7519 58.5878 20.7181C58.6723 20.6787 58.706 20.6731 58.7961 20.6619C58.8692 20.5549 58.813 20.6281 58.8636 20.6056L59.1 20.5099H59.1394C59.2069 20.4761 59.2632 20.4649 59.3307 20.4367H59.3701C59.4377 20.403 59.494 20.3917 59.5615 20.3636H59.6009C59.6459 20.3411 59.6628 20.3411 59.7078 20.3185C59.7585 20.296 59.7641 20.2848 59.8091 20.2679C59.9161 20.2285 59.9104 20.2623 60.0174 20.2116C60.023 20.206 60.0343 20.2004 60.0399 20.2004L60.2875 20.1159C60.3326 20.1047 60.3607 20.099 60.4339 20.0653C60.5183 20.0315 60.4564 20.0484 60.5352 20.0315L60.7772 19.9696C60.8166 19.9583 60.9798 19.9471 61.0698 19.9077H61.1092L61.6777 19.7557H61.7171C61.7846 19.722 61.8409 19.7107 61.9084 19.6826H61.9478C62.0379 19.6432 62.1561 19.6713 62.2911 19.6094H62.3305C62.6288 19.4631 62.46 19.6207 62.5444 19.4293C62.6738 19.1479 62.5669 19.48 62.6119 19.1648C62.6344 19.0128 62.6964 19.1648 62.6907 18.7877L62.7864 17.9435V17.9041C62.8821 17.7578 62.8765 17.6283 62.9215 17.4764L62.9946 17.2681C63.0003 17.24 63.0059 17.2343 63.0172 17.1893L63.0734 17.0205C63.0734 17.0092 63.0734 16.9473 63.0734 16.9473L63.383 16.3958C63.428 16.2944 63.4787 16.3113 63.5181 16.2269C63.625 16.0018 63.4224 16.3395 63.6475 16.0356C63.7094 15.9568 63.6363 15.9793 63.7488 15.9117C63.7544 15.9061 63.7657 15.9005 63.7713 15.9005L63.9571 15.8161H63.9964C64.2103 15.7148 64.1203 15.8104 64.3285 15.7316L64.5649 15.6641H64.6043L64.9138 15.4446C64.9645 15.3996 64.9701 15.3996 65.0208 15.3602L65.0939 15.287H65.1333C65.2628 15.2251 65.3247 15.2589 65.381 15.1069L65.4766 14.6792C65.2571 14.6792 65.0714 14.6736 64.987 14.6398H64.9476C64.8182 14.5835 64.9138 14.6679 64.7562 14.5666L64.5255 14.3865C64.5255 14.3809 64.5199 14.3696 64.5142 14.3696L64.3341 14.1164L64.306 14.0713C64.3004 14.0657 64.2947 14.0545 64.2947 14.0488C64.2891 14.0432 64.2835 14.032 64.2835 14.0263C64.2779 14.0207 64.2722 14.0094 64.2666 14.0038C64.1315 13.8068 64.0978 13.7111 64.0865 13.4973C64.0809 13.4016 64.0921 13.3397 64.1146 13.289V13.2496L64.1709 13.002C64.1766 12.9964 64.1822 12.9851 64.1822 12.9739L64.2441 12.7713C64.3229 12.5855 64.2103 12.6362 64.4129 12.4505L64.5649 12.3323H64.6043L65.0208 12.1803H65.0602C65.229 12.0959 65.4766 12.1071 65.6286 12.1803H65.668L66.0113 12.2929C66.0113 12.2872 66.0169 12.2816 66.0169 12.276L66.0901 12.1803C66.1239 12.1184 66.1408 12.0677 66.1802 12.0058C66.2252 11.9439 66.2196 11.9664 66.2421 11.927C66.2702 11.8708 66.3434 11.6907 66.4559 11.5668C66.5572 11.4543 66.5741 11.4937 66.6248 11.4655C67.075 11.2235 66.8443 11.3811 67.0694 11.2742H67.1088C67.2945 11.1954 68.2851 11.1841 68.4821 11.2179C68.4989 11.2235 68.6453 11.2517 68.6678 11.2573L68.8085 11.2742C68.876 11.3642 68.8648 11.3079 69.1124 11.4261H69.1518C69.1912 11.4543 69.1968 11.4599 69.2362 11.4768C69.36 11.5274 69.1799 11.443 69.2925 11.4937C69.3432 11.5162 69.36 11.5443 69.4163 11.5837L69.7934 11.8089H69.8328C69.9116 11.8651 69.9285 11.8764 69.9904 11.9552C69.996 11.9608 70.0016 11.9721 70.0073 11.9721L70.0298 12.0058C70.1536 12.2253 70.1142 12.1297 70.1198 12.2422C70.1311 12.4842 70.1029 13.0133 70.0242 13.199V13.2384L69.951 13.351L70.0242 13.3903H70.0635H70.1029H70.1423H70.1817H70.2211C70.4181 13.486 70.4181 13.4072 70.7052 13.5479L70.9359 13.6943C70.9415 13.6999 70.9528 13.7055 70.9584 13.7111L71.3805 13.9306C71.6394 14.1276 71.5944 14.2289 71.6901 14.3021C71.752 14.3922 71.7351 14.3415 71.7632 14.4541C71.6507 14.4822 71.7295 14.4597 71.6282 14.5103C71.6169 14.516 71.5888 14.5329 71.5775 14.5385L71.5325 14.5666C71.2061 14.5948 71.4199 14.606 71.0879 14.5497L70.8402 14.4935C70.8346 14.4935 70.829 14.4878 70.8233 14.4878C70.8177 14.4878 70.8121 14.4822 70.8065 14.4822L70.3168 14.3978C69.6077 14.3415 69.7259 14.2458 69.7653 14.8424L69.6302 15.1632C69.6077 15.1913 69.557 15.2307 69.5345 15.2589C69.5232 15.2701 69.3319 15.6866 69.4951 15.7542C69.5233 15.7654 69.5683 15.7429 69.7202 15.8161L69.7934 15.8892H69.8328L70.4688 16.0806C70.4969 16.0918 70.5138 16.0975 70.5532 16.1143H70.5926L70.7052 16.1875H70.7445C70.8065 16.2269 70.8121 16.2438 70.874 16.2832C71.1048 16.4126 71.8702 17.1837 72.039 17.3919C72.1459 17.5214 72.0221 17.4257 72.1009 17.4989C72.1459 17.5439 72.1234 17.482 72.2079 17.5664C72.3204 17.6733 72.1628 17.5326 72.2585 17.6508C72.2923 17.6902 72.2585 17.6396 72.2979 17.6846L72.3542 17.7634C72.3711 17.7915 72.4048 17.8253 72.4048 17.8253L72.5624 18.1236C72.5681 18.1292 72.5737 18.1348 72.5793 18.1405L72.6975 18.2474C72.7031 18.253 72.7144 18.2587 72.72 18.2643C72.7256 18.2699 72.7369 18.2755 72.7425 18.2755L72.7932 18.3037C72.9845 18.4331 73.0014 18.6132 73.0802 18.8946L73.2491 19.3618C73.2828 19.4068 73.3166 19.418 73.356 19.4462C73.4348 19.6319 73.2997 19.4293 73.401 19.5869L73.598 19.8908C73.598 19.8964 73.6036 19.9077 73.6036 19.9077L73.6768 20.0597C73.6768 20.0653 73.6824 20.0765 73.6824 20.0765C73.7162 20.1497 73.688 20.0934 73.7218 20.1328C73.7781 20.2004 73.7331 20.1272 73.7781 20.1947L73.9019 20.4198C73.9976 20.6562 73.9976 20.448 74.0539 20.7013L74.0989 20.8251C74.1439 20.932 74.127 20.9433 74.1439 20.9883L74.3916 21.5567C74.4141 21.6018 74.4422 21.6749 74.4591 21.7143C74.5885 21.8044 74.476 21.7199 74.5266 21.8156C74.566 21.9 74.5379 21.8325 74.5942 21.9169L74.7236 22.1702C74.8193 22.3165 74.8587 22.4066 75.0219 22.5135L75.1795 22.6204C75.2527 22.6711 75.3371 22.6992 75.399 22.778C75.4665 22.8681 75.4159 22.7893 75.4609 22.9075C75.4609 22.9075 75.4947 22.9863 75.4947 22.9919C75.4947 22.9975 75.5059 23.02 75.5059 23.0144C75.5059 23.0088 75.5172 23.0313 75.5228 23.0369C75.3765 23.2564 75.4496 23.2283 75.4215 23.2958C75.3708 23.4196 75.3877 23.262 75.2639 23.5209C75.2133 23.6335 75.2076 23.5266 75.1908 23.6729L75.1964 23.898C75.1964 24.8661 75.1401 24.4271 75.3427 24.8379L75.399 24.928C75.4834 25.0743 75.5622 25.2882 75.7423 25.5414L75.883 25.8059C75.883 25.8116 75.8886 25.8228 75.8886 25.8228C75.9393 25.9298 75.8943 25.8116 75.9449 25.9185C75.9956 26.0254 75.9111 25.9016 75.9843 26.0142C76.2263 26.3856 76.0012 26.2055 76.1644 26.3294C76.2038 26.3856 76.2038 26.3969 76.2319 26.4475L76.322 26.6051C76.3445 26.6558 76.3051 26.6502 76.3895 26.7064C76.4289 26.8077 76.3895 26.729 76.4177 26.8077C76.3389 26.8471 76.3558 26.8753 76.367 26.9203ZM20.2548 50.6597V50.6203L20.2998 50.654L20.2548 50.6597Z" fill="white" fill-opacity="0.85"/>
</svg>
